<?xml version="1.0" encoding="utf-8"?>
<!-- Generator: Adobe Illustrator 28.4.1, SVG Export Plug-In . SVG Version: 6.00 Build 0)  -->
<svg version="1.1" xmlns="http://www.w3.org/2000/svg" xmlns:xlink="http://www.w3.org/1999/xlink" x="0px" y="0px"
	 viewBox="0 0 898.39 295.91" style="enable-background:new 0 0 898.39 295.91;" xml:space="preserve">
<style type="text/css">
	.st0{display:none;}
	.st1{display:inline;}
</style>
<g id="레이어_1" class="st0">
	<path class="st1" d="M734.91,105.9v-241.2H493.7l-33.85,33.85l-33.85-33.85H184.8v241.2l33.85,33.85L184.8,173.6v241.2h241.2
		l33.85-33.85l33.85,33.85h241.2V173.6l-33.85-33.85L734.91,105.9z M640.4,320.29H279.31V-40.79H640.4V320.29z" fill="#fff"/>
</g>
<g id="레이어_2">
	<g>
		<g>
			<g>
				<path d="M85.92,174.22c-17.07,0-32.99-2.35-47.75-7.05C23.41,162.46,10.69,155.4,0,145.98l29.91-35.66
					c9.09,7.02,18.67,12.05,28.72,15.08c10.06,3.03,20.02,4.55,29.91,4.55c5.11,0,8.77-0.63,11.01-1.92
					c2.23-1.27,3.35-3.02,3.35-5.26v-0.48c0-2.4-1.64-4.39-4.9-5.98c-3.28-1.6-9.38-3.27-18.31-5.03
					c-9.41-1.91-18.39-4.14-26.92-6.7c-8.54-2.55-16.04-5.82-22.5-9.82c-6.46-3.99-11.61-8.97-15.43-14.95
					c-3.83-5.99-5.75-13.44-5.75-22.38v-0.48c0-7.97,1.56-15.39,4.67-22.25c3.11-6.86,7.66-12.84,13.65-17.95
					c5.98-5.11,13.4-9.1,22.25-11.97c8.85-2.87,19.03-4.31,30.51-4.31c16.27,0,30.52,1.91,42.72,5.74s23.17,9.57,32.91,17.23
					l-27.29,37.81c-7.98-5.74-16.39-9.93-25.25-12.56c-8.85-2.63-17.19-3.95-25.01-3.95c-4.15,0-7.22,0.64-9.21,1.92
					c-2,1.28-2.99,2.95-2.99,5.02v0.48c0,1.12,0.31,2.16,0.96,3.11c0.63,0.96,1.8,1.87,3.47,2.75c1.67,0.88,3.95,1.72,6.82,2.52
					c2.87,0.8,6.54,1.6,11,2.4c10.69,1.91,20.43,4.23,29.2,6.94c8.77,2.72,16.31,6.19,22.62,10.41c6.3,4.23,11.16,9.29,14.59,15.2
					c3.43,5.9,5.14,13.08,5.14,21.54v0.48c0,8.77-1.75,16.67-5.26,23.69c-3.51,7.02-8.46,12.96-14.83,17.83
					c-6.38,4.87-14.16,8.61-23.34,11.25C107.25,172.9,97.08,174.22,85.92,174.22z" fill="#fff"/>
				<path d="M231.18,2.39h55.53l70.6,168.72h-60.79l-8.85-22.5h-58.63l-8.61,22.5h-59.83L231.18,2.39z M273.78,108.89L258.46,68.2
					l-15.32,40.69H273.78z" fill="#fff"/>
				<path d="M454.46,174.7c-13.09,0-25.33-2.08-36.74-6.23c-11.41-4.14-21.38-10.05-29.91-17.71c-8.54-7.66-15.24-16.83-20.1-27.52
					c-4.87-10.68-7.3-22.49-7.3-35.42v-0.48c0-12.44,2.31-24.02,6.94-34.71c4.63-10.68,11.09-19.94,19.39-27.76
					c8.29-7.82,18.07-13.92,29.32-18.31C427.31,2.19,439.54,0,452.79,0c14.51,0,27.55,2.23,39.13,6.7
					c11.56,4.47,21.9,10.69,31,18.67l-31.35,37.81c-5.58-4.63-11.41-8.22-17.47-10.77c-6.07-2.55-12.61-3.83-19.63-3.83
					c-5.43,0-10.45,1-15.08,2.99c-4.63,1.99-8.61,4.75-11.96,8.26c-3.35,3.51-5.95,7.66-7.78,12.44c-1.84,4.79-2.75,10.05-2.75,15.8
					v0.48c0,5.91,0.99,11.33,2.99,16.27c1.99,4.94,4.74,9.17,8.26,12.68c3.51,3.51,7.7,6.22,12.56,8.14
					c4.86,1.91,10.25,2.87,16.15,2.87c4.79,0,8.61-0.31,11.48-0.96c2.87-0.63,5.43-1.59,7.66-2.87v-16.75h-28.72V72.27h81.13v77.36
					c-9.09,7.48-19.87,13.53-32.31,18.14C483.66,172.39,469.78,174.7,454.46,174.7z" fill="#fff"/>
				<path d="M603.08,2.39h55.53l70.6,168.72h-60.79l-8.85-22.5h-58.63l-8.61,22.5h-59.83L603.08,2.39z M645.68,108.89L630.36,68.2
					l-15.32,40.69H645.68z" fill="#fff"/>
				<path d="M819.18,174.7c-11.65,0-22.69-2.08-33.15-6.23c-10.45-4.14-19.66-10.05-27.64-17.71c-7.98-7.66-14.33-16.83-19.03-27.52
					c-4.71-10.68-7.06-22.49-7.06-35.42v-0.48c0-12.44,2.28-24.02,6.82-34.71c4.55-10.68,10.85-19.94,18.91-27.76
					c8.06-7.82,17.51-13.92,28.35-18.31C797.25,2.19,808.89,0,821.34,0c9.25,0,17.74,1.08,25.49,3.23
					c7.73,2.16,14.76,5.15,21.06,8.97c6.3,3.83,11.88,8.42,16.75,13.77c4.87,5.35,9.06,11.21,12.56,17.59L851.01,70.6
					c-3.2-6.06-7.14-10.97-11.85-14.72s-10.88-5.62-18.54-5.62c-4.79,0-9.1,0.96-12.92,2.87c-3.83,1.92-7.11,4.55-9.82,7.9
					c-2.71,3.35-4.82,7.26-6.34,11.73c-1.52,4.47-2.28,9.17-2.28,14.12v0.49c0,5.42,0.75,10.41,2.28,14.95
					c1.52,4.55,3.67,8.46,6.46,11.73c2.79,3.27,6.11,5.82,9.94,7.66c3.83,1.84,8.06,2.75,12.68,2.75c7.97,0,14.36-1.96,19.14-5.87
					c4.79-3.9,8.94-8.97,12.44-15.2l46.19,26.09c-3.51,6.22-7.65,12.09-12.44,17.59c-4.79,5.5-10.41,10.29-16.87,14.36
					c-6.46,4.07-13.8,7.3-22.02,9.7C838.84,173.5,829.55,174.7,819.18,174.7z" fill="#fff"/>
			</g>
		</g>
		<g>
			<path d="M45.11,214.91l-33.28,79.53h28.2l4.06-10.6h27.64l4.17,10.6h28.66l-33.28-79.53H45.11z M50.75,265.11l7.23-19.18
				l7.22,19.18H50.75z" fill="#fff"/>
			<path d="M132.87,245.26v-12.41h-25.72v61.59h25.72v-15.68c0-6.84,1.41-11.82,4.23-14.95c2.82-3.12,6.94-4.68,12.36-4.68h2.71
				v-27.18c-5.11-0.23-9.18,0.9-12.18,3.38C136.97,237.81,134.61,241.12,132.87,245.26z" fill="#fff"/>
			<path d="M186.92,217.4h-25.72v15.45h-7.23v19.74h7.23v21.22c0,7.52,1.98,13.06,5.95,16.64c3.97,3.57,9.76,5.36,17.39,5.36
				c3.17,0,6.18-0.32,9.04-0.96c2.86-0.63,5.3-1.48,7.33-2.53v-19.75c-2.78,1.21-5.38,1.81-7.79,1.81c-2.03,0-3.57-0.47-4.62-1.4
				c-1.06-0.94-1.58-2.56-1.58-4.88v-15.49h14.21v-19.74h-14.21V217.4z" fill="#fff"/>
			<path d="M265.89,217.4h-25.72v15.45h-7.23v19.74h7.23v21.22c0,7.52,1.98,13.06,5.95,16.64c3.97,3.57,9.76,5.36,17.39,5.36
				c3.17,0,6.18-0.32,9.04-0.96c2.86-0.63,5.3-1.48,7.33-2.53v-19.75c-2.78,1.21-5.38,1.81-7.79,1.81c-2.03,0-3.57-0.47-4.62-1.4
				c-1.06-0.94-1.58-2.56-1.58-4.88v-15.49h14.21v-19.74h-14.21V217.4z" fill="#fff"/>
			<path d="M339.78,241.31c-2.63-3.08-5.97-5.51-9.99-7.28c-4.02-1.76-8.78-2.65-14.27-2.65c-4.66,0-8.93,0.83-12.81,2.49
				c-3.87,1.65-7.2,3.93-9.98,6.82c-2.79,2.89-4.97,6.32-6.55,10.26c-1.58,3.95-2.37,8.22-2.37,12.81v0.22
				c0,4.82,0.81,9.18,2.42,13.09c1.62,3.91,3.91,7.26,6.89,10.04c2.97,2.78,6.54,4.94,10.71,6.48c4.18,1.54,8.78,2.31,13.82,2.31
				c6.69,0,12.28-1.24,16.76-3.73c4.47-2.48,8.25-5.71,11.34-9.7l-13.76-10.94c-2.03,2.1-4.05,3.68-6.04,4.74
				c-1.99,1.06-4.15,1.58-6.48,1.58c-2.78,0-5.19-0.7-7.23-2.08c-2.03-1.4-3.49-3.44-4.4-6.15h39.6c0.07-0.68,0.12-1.4,0.12-2.15
				c0-0.74,0-1.46,0-2.14c0-4.66-0.64-9.06-1.92-13.2C344.36,248,342.41,244.4,339.78,241.31z M307.51,258.34
				c0.38-2.86,1.29-5.11,2.71-6.77c1.43-1.65,3.23-2.49,5.42-2.49c2.26,0,4.18,0.82,5.76,2.43c1.58,1.62,2.52,3.89,2.82,6.82H307.51
				z" fill="#fff"/>
			<path d="M407.91,239.84c-2.7-2.71-6.14-4.72-10.32-6.04c-4.18-1.31-9.42-1.97-15.74-1.97c-5.42,0-10.19,0.42-14.33,1.25
				c-4.13,0.83-8.01,1.91-11.61,3.27l4.51,17.03c2.71-1.05,5.44-1.89,8.18-2.53c2.75-0.64,5.7-0.96,8.86-0.96
				c3.98,0,6.88,0.78,8.69,2.31c1.8,1.54,2.71,3.75,2.71,6.6v1.02c-0.68-0.3-1.58-0.59-2.71-0.84c-1.13-0.27-2.35-0.51-3.66-0.73
				c-1.32-0.23-2.69-0.39-4.12-0.5c-1.43-0.12-2.78-0.17-4.06-0.17c-7.23,0-12.94,1.65-17.15,4.97c-4.21,3.31-6.32,8.04-6.32,14.21
				v0.23c0,3.08,0.49,5.79,1.46,8.12c0.98,2.33,2.38,4.31,4.18,5.92c1.81,1.62,3.95,2.85,6.44,3.67c2.48,0.83,5.19,1.24,8.12,1.24
				c3.84,0,7.21-0.7,10.1-2.08c2.89-1.4,5.44-3.26,7.62-5.59v6.21h25.61v-35.08c0-4.52-0.49-8.31-1.47-11.39
				C411.9,244.88,410.24,242.17,407.91,239.84z M389.07,271.65c0,2.94-0.75,5.24-2.25,6.94c-1.51,1.69-3.39,2.53-5.65,2.53
				c-1.65,0-3.05-0.54-4.17-1.63c-1.13-1.09-1.7-2.53-1.7-4.34v-0.23c0-1.96,0.68-3.59,2.03-4.9c1.36-1.31,3.31-1.97,5.87-1.97
				c1.06,0,2.11,0.09,3.16,0.28c1.06,0.18,1.96,0.43,2.71,0.73V271.65z" fill="#fff"/>
			<path d="M526.26,264.29v-10.46c0-7-1.9-12.49-5.71-16.47c-3.81-3.99-9.03-5.99-15.67-5.99c-4.75,0-8.77,0.96-12.05,2.88
				c-3.28,1.91-6.24,4.34-8.88,7.27c-1.73-3.31-4.12-5.83-7.2-7.56s-6.71-2.6-10.91-2.6c-4.28,0-7.95,0.98-11.03,2.94
				s-5.58,4.21-7.54,6.77v-8.24h-25.72v61.59h25.72v-32.6c0-2.63,0.72-4.65,2.13-6.03c1.41-1.4,3.06-2.09,4.92-2.09
				s3.45,0.7,4.76,2.09c1.3,1.39,1.96,3.4,1.96,6.03v32.6h25.72v-32.6c0-2.63,0.71-4.65,2.13-6.03c1.41-1.4,3.06-2.09,4.92-2.09
				c1.86,0,3.45,0.7,4.76,2.09c1.3,1.39,1.96,3.4,1.96,6.03v32.6h7.58v0h390.27v-30.15H526.26z" fill="#fff"/>
		</g>
	</g>
</g>
</svg>
