<?xml version="1.0" encoding="utf-8"?>
<!-- Generator: Adobe Illustrator 27.4.0, SVG Export Plug-In . SVG Version: 6.00 Build 0)  -->
<svg version="1.1" xmlns="http://www.w3.org/2000/svg" xmlns:xlink="http://www.w3.org/1999/xlink" x="0px" y="0px"
	 viewBox="0 0 550.1 550.1" style="enable-background:new 0 0 550.1 550.1;" xml:space="preserve">
<style type="text/css">
	.st0{display:none;}
	.st1{display:inline;}
</style>
<g id="레이어_1">
	<path d="M550.1,241.2V0H308.9l-33.85,33.85L241.2,0H0v241.2l33.85,33.85L0,308.9v241.2h241.2l33.85-33.85l33.85,33.85h241.2V308.9
		l-33.85-33.85L550.1,241.2z M455.59,455.59H94.51V94.51h361.08V455.59z"/>
</g>
<g id="레이어_2" class="st0">
	<g class="st1">
		<g>
			<g>
				<path d="M83.86,281.11c-5.76,0-11.13-0.79-16.11-2.38c-4.98-1.59-9.27-3.97-12.88-7.15l10.09-12.03
					c3.07,2.37,6.3,4.07,9.69,5.09c3.39,1.02,6.76,1.53,10.09,1.53c1.72,0,2.96-0.21,3.72-0.65c0.75-0.43,1.13-1.02,1.13-1.78v-0.16
					c0-0.81-0.55-1.48-1.65-2.02c-1.11-0.54-3.16-1.1-6.18-1.7c-3.18-0.64-6.2-1.4-9.08-2.26c-2.88-0.86-5.41-1.96-7.59-3.31
					c-2.18-1.34-3.92-3.03-5.21-5.04c-1.29-2.02-1.94-4.53-1.94-7.55v-0.16c0-2.69,0.53-5.19,1.57-7.51
					c1.05-2.31,2.58-4.33,4.6-6.05c2.02-1.72,4.52-3.07,7.51-4.04c2.99-0.97,6.42-1.45,10.29-1.45c5.49,0,10.3,0.64,14.41,1.94
					c4.12,1.29,7.82,3.23,11.1,5.81L98.23,243c-2.69-1.94-5.53-3.35-8.52-4.24c-2.99-0.89-5.8-1.33-8.44-1.33
					c-1.4,0-2.44,0.22-3.11,0.65c-0.68,0.43-1.01,0.99-1.01,1.7v0.16c0,0.38,0.11,0.73,0.32,1.05c0.21,0.32,0.61,0.63,1.17,0.93
					c0.56,0.3,1.33,0.58,2.3,0.85c0.97,0.27,2.21,0.54,3.71,0.81c3.61,0.64,6.89,1.43,9.85,2.34c2.96,0.92,5.5,2.09,7.63,3.51
					c2.13,1.43,3.77,3.14,4.92,5.13c1.16,1.99,1.74,4.41,1.74,7.27v0.16c0,2.96-0.59,5.62-1.78,7.99c-1.18,2.37-2.85,4.37-5,6.01
					c-2.15,1.64-4.78,2.91-7.87,3.8C91.06,280.67,87.63,281.11,83.86,281.11z"/>
				<path d="M132.87,223.14h18.73l23.82,56.92h-20.51l-2.99-7.59h-19.78l-2.91,7.59h-20.19L132.87,223.14z M147.24,259.07
					l-5.17-13.73l-5.17,13.73H147.24z"/>
				<path d="M208.2,281.27c-4.42,0-8.55-0.7-12.39-2.1c-3.85-1.4-7.21-3.39-10.09-5.97c-2.88-2.58-5.14-5.68-6.78-9.29
					c-1.64-3.6-2.46-7.59-2.46-11.95v-0.16c0-4.2,0.78-8.1,2.34-11.71c1.56-3.6,3.74-6.73,6.54-9.36c2.8-2.64,6.1-4.7,9.89-6.18
					c3.8-1.48,7.92-2.22,12.39-2.22c4.9,0,9.3,0.75,13.2,2.26c3.9,1.51,7.39,3.61,10.46,6.3l-10.58,12.76
					c-1.88-1.56-3.85-2.77-5.89-3.63c-2.05-0.86-4.25-1.29-6.62-1.29c-1.83,0-3.53,0.34-5.09,1.01s-2.91,1.6-4.03,2.79
					c-1.13,1.18-2.01,2.58-2.62,4.2c-0.62,1.61-0.93,3.39-0.93,5.33v0.16c0,1.99,0.33,3.82,1.01,5.49c0.67,1.67,1.6,3.1,2.79,4.28
					c1.18,1.18,2.6,2.1,4.24,2.75c1.64,0.64,3.46,0.97,5.45,0.97c1.61,0,2.91-0.11,3.87-0.32c0.97-0.21,1.83-0.54,2.58-0.97v-5.65
					h-9.69v-12.03h27.37v26.1c-3.07,2.52-6.7,4.56-10.9,6.12S213.37,281.27,208.2,281.27z"/>
				<path d="M258.34,223.14h18.73l23.82,56.92h-20.51l-2.99-7.59h-19.78l-2.91,7.59h-20.19L258.34,223.14z M272.72,259.07
					l-5.17-13.73l-5.17,13.73H272.72z"/>
				<path d="M331.25,281.27c-3.93,0-7.66-0.7-11.18-2.1c-3.53-1.4-6.63-3.39-9.32-5.97c-2.69-2.58-4.83-5.68-6.42-9.29
					c-1.59-3.6-2.38-7.59-2.38-11.95v-0.16c0-4.2,0.77-8.1,2.3-11.71c1.53-3.6,3.66-6.73,6.38-9.36c2.72-2.64,5.91-4.7,9.57-6.18
					c3.66-1.48,7.59-2.22,11.79-2.22c3.12,0,5.99,0.36,8.6,1.09c2.61,0.73,4.98,1.74,7.11,3.03c2.13,1.29,4.01,2.84,5.65,4.64
					c1.64,1.8,3.06,3.78,4.24,5.93l-15.58,9.13c-1.08-2.05-2.41-3.7-4-4.97c-1.59-1.26-3.67-1.9-6.26-1.9
					c-1.61,0-3.07,0.32-4.36,0.97c-1.29,0.65-2.4,1.53-3.31,2.66s-1.63,2.45-2.14,3.96c-0.51,1.51-0.77,3.1-0.77,4.76v0.16
					c0,1.83,0.25,3.51,0.77,5.04c0.51,1.53,1.24,2.85,2.18,3.96s2.06,1.96,3.35,2.58s2.72,0.93,4.28,0.93
					c2.69,0,4.84-0.66,6.46-1.98c1.61-1.32,3.01-3.03,4.2-5.13l15.58,8.8c-1.18,2.1-2.58,4.08-4.2,5.93
					c-1.61,1.86-3.51,3.47-5.69,4.84c-2.18,1.37-4.65,2.46-7.43,3.27C337.89,280.87,334.75,281.27,331.25,281.27z"/>
			</g>
		</g>
		<g>
			<path d="M70.09,294.84l-11.23,26.83h9.52l1.37-3.58h9.33l1.41,3.58h9.67l-11.23-26.83H70.09z M71.99,311.77l2.44-6.47l2.43,6.47
				H71.99z"/>
			<path d="M99.7,305.08v-4.19h-8.68v20.78h8.68v-5.29c0-2.31,0.48-3.99,1.43-5.04c0.95-1.05,2.34-1.58,4.17-1.58h0.91v-9.17
				c-1.73-0.08-3.1,0.3-4.11,1.14C101.09,302.56,100.29,303.68,99.7,305.08z"/>
			<path d="M117.94,295.68h-8.68v5.21h-2.44v6.66h2.44v7.16c0,2.54,0.67,4.41,2.01,5.61c1.34,1.2,3.29,1.81,5.87,1.81
				c1.07,0,2.08-0.11,3.05-0.33c0.96-0.21,1.79-0.5,2.47-0.85v-6.66c-0.94,0.41-1.82,0.61-2.63,0.61c-0.68,0-1.2-0.16-1.56-0.47
				c-0.36-0.32-0.53-0.86-0.53-1.65v-5.23h4.79v-6.66h-4.79V295.68z"/>
			<path d="M144.58,295.68h-8.68v5.21h-2.44v6.66h2.44v7.16c0,2.54,0.67,4.41,2.01,5.61s3.29,1.81,5.87,1.81
				c1.07,0,2.08-0.11,3.05-0.33c0.96-0.21,1.79-0.5,2.47-0.85v-6.66c-0.94,0.41-1.82,0.61-2.63,0.61c-0.68,0-1.2-0.16-1.56-0.47
				c-0.36-0.32-0.53-0.86-0.53-1.65v-5.23h4.79v-6.66h-4.79V295.68z"/>
			<path d="M169.51,303.74c-0.89-1.04-2.01-1.86-3.37-2.46c-1.36-0.59-2.96-0.9-4.81-0.9c-1.57,0-3.01,0.28-4.32,0.84
				c-1.31,0.56-2.43,1.33-3.37,2.3c-0.94,0.98-1.68,2.13-2.21,3.46c-0.53,1.33-0.8,2.77-0.8,4.32v0.07c0,1.63,0.27,3.1,0.82,4.42
				c0.55,1.32,1.32,2.45,2.32,3.39c1,0.94,2.21,1.67,3.61,2.19s2.96,0.78,4.66,0.78c2.26,0,4.14-0.42,5.65-1.26
				c1.51-0.84,2.78-1.93,3.83-3.27l-4.64-3.69c-0.68,0.71-1.37,1.24-2.04,1.6c-0.67,0.36-1.4,0.53-2.19,0.53
				c-0.94,0-1.75-0.24-2.44-0.7c-0.68-0.47-1.18-1.16-1.48-2.08h13.36c0.02-0.23,0.04-0.47,0.04-0.72c0-0.25,0-0.49,0-0.72
				c0-1.57-0.22-3.06-0.65-4.45C171.06,306,170.4,304.79,169.51,303.74z M158.62,309.49c0.13-0.96,0.43-1.73,0.91-2.28
				c0.48-0.56,1.09-0.84,1.83-0.84c0.76,0,1.41,0.28,1.94,0.82c0.53,0.55,0.85,1.31,0.95,2.3H158.62z"/>
			<path d="M192.5,303.25c-0.91-0.91-2.07-1.59-3.48-2.04c-1.41-0.44-3.18-0.67-5.31-0.67c-1.83,0-3.44,0.14-4.84,0.42
				c-1.39,0.28-2.7,0.64-3.92,1.1l1.52,5.75c0.91-0.35,1.83-0.64,2.76-0.85c0.93-0.22,1.92-0.33,2.99-0.33
				c1.34,0,2.32,0.26,2.93,0.78c0.61,0.52,0.91,1.26,0.91,2.23v0.34c-0.23-0.1-0.53-0.2-0.91-0.28c-0.38-0.09-0.79-0.17-1.24-0.25
				c-0.45-0.08-0.91-0.13-1.39-0.17c-0.48-0.04-0.94-0.06-1.37-0.06c-2.44,0-4.36,0.56-5.79,1.68c-1.42,1.12-2.13,2.71-2.13,4.79
				v0.08c0,1.04,0.16,1.95,0.49,2.74c0.33,0.79,0.8,1.45,1.41,2c0.61,0.55,1.33,0.96,2.17,1.24c0.84,0.28,1.75,0.42,2.74,0.42
				c1.29,0,2.43-0.24,3.41-0.7c0.98-0.47,1.83-1.1,2.57-1.89v2.09h8.64v-11.84c0-1.52-0.16-2.8-0.5-3.84
				C193.84,304.95,193.28,304.04,192.5,303.25z M186.14,313.98c0,0.99-0.25,1.77-0.76,2.34c-0.51,0.57-1.14,0.85-1.9,0.85
				c-0.56,0-1.03-0.18-1.41-0.55c-0.38-0.37-0.57-0.85-0.57-1.47v-0.08c0-0.66,0.23-1.21,0.68-1.65c0.46-0.44,1.12-0.67,1.98-0.67
				c0.36,0,0.71,0.03,1.07,0.1c0.36,0.06,0.66,0.15,0.91,0.24V313.98z"/>
			<path d="M232.43,311.5v-3.53c0-2.36-0.64-4.21-1.93-5.56c-1.29-1.35-3.05-2.02-5.29-2.02c-1.6,0-2.96,0.33-4.06,0.97
				c-1.11,0.64-2.11,1.47-3,2.45c-0.58-1.12-1.39-1.97-2.43-2.55c-1.04-0.58-2.26-0.88-3.68-0.88c-1.44,0-2.68,0.33-3.72,0.99
				c-1.04,0.66-1.88,1.42-2.54,2.28v-2.78h-8.68v20.78h8.68v-11c0-0.89,0.24-1.57,0.72-2.04c0.48-0.47,1.03-0.71,1.66-0.71
				c0.63,0,1.16,0.24,1.6,0.71c0.44,0.47,0.66,1.15,0.66,2.04v11h8.68v-11c0-0.89,0.24-1.57,0.72-2.04
				c0.48-0.47,1.03-0.71,1.66-0.71c0.63,0,1.16,0.24,1.6,0.71c0.44,0.47,0.66,1.15,0.66,2.04v11h2.56v0h131.67V311.5H232.43z"/>
		</g>
	</g>
</g>
</svg>
