<?xml version="1.0" encoding="utf-8"?>
<!-- Generator: Adobe Illustrator 27.4.0, SVG Export Plug-In . SVG Version: 6.00 Build 0)  -->
<svg version="1.1" xmlns="http://www.w3.org/2000/svg" xmlns:xlink="http://www.w3.org/1999/xlink" x="0px" y="0px"
	 viewBox="0 0 303.11 399.53" style="enable-background:new 0 0 303.11 399.53;" xml:space="preserve">
<style type="text/css">
	.st0{display:none;}
	.st1{display:inline;}
</style>
<g id="레이어_1" class="st0">
	<g class="st1">
		<path d="M60.5,218.49V168H10.01l-7.08,7.08L-4.16,168h-50.49v50.49l7.08,7.08l-7.08,7.08v50.49h50.49l7.08-7.08l7.08,7.08H60.5
			v-50.49l-7.08-7.08L60.5,218.49z M40.71,263.36h-75.58v-75.58h75.58V263.36z"/>
		<g>
			<path d="M108.68,233.35c-5.37,0-10.37-0.74-15.01-2.22c-4.64-1.48-8.64-3.7-12-6.66l9.41-11.21c2.86,2.21,5.87,3.79,9.03,4.74
				c3.16,0.95,6.3,1.43,9.41,1.43c1.61,0,2.76-0.2,3.46-0.6c0.7-0.4,1.05-0.95,1.05-1.65v-0.15c0-0.75-0.52-1.38-1.54-1.88
				c-1.03-0.5-2.95-1.03-5.76-1.58c-2.96-0.6-5.78-1.3-8.46-2.11c-2.69-0.8-5.04-1.83-7.08-3.09c-2.03-1.25-3.65-2.82-4.85-4.7
				c-1.2-1.88-1.81-4.23-1.81-7.04v-0.15c0-2.51,0.49-4.84,1.47-7c0.98-2.16,2.41-4.04,4.29-5.64c1.88-1.61,4.21-2.86,7-3.76
				c2.78-0.9,5.98-1.35,9.59-1.35c5.12,0,9.6,0.6,13.43,1.81c3.84,1.2,7.29,3.01,10.35,5.42l-8.58,11.89
				c-2.51-1.81-5.15-3.12-7.94-3.95c-2.78-0.83-5.41-1.24-7.86-1.24c-1.31,0-2.27,0.2-2.9,0.6c-0.63,0.4-0.94,0.93-0.94,1.58v0.15
				c0,0.35,0.1,0.68,0.3,0.98c0.2,0.3,0.57,0.59,1.09,0.87c0.53,0.27,1.24,0.54,2.15,0.79c0.9,0.25,2.06,0.5,3.46,0.75
				c3.36,0.6,6.42,1.33,9.18,2.18c2.76,0.85,5.13,1.95,7.11,3.27c1.98,1.33,3.51,2.92,4.59,4.78c1.08,1.85,1.62,4.11,1.62,6.77v0.15
				c0,2.76-0.55,5.24-1.65,7.45c-1.1,2.21-2.66,4.08-4.66,5.61c-2.01,1.53-4.45,2.71-7.34,3.54
				C115.39,232.93,112.19,233.35,108.68,233.35z"/>
			<path d="M154.36,179.32h17.46l22.2,53.05H174.9l-2.78-7.08h-18.44l-2.71,7.08h-18.81L154.36,179.32z M167.76,212.8l-4.82-12.79
				l-4.82,12.79H167.76z"/>
			<path d="M224.57,233.5c-4.12,0-7.96-0.65-11.55-1.96c-3.59-1.3-6.72-3.16-9.41-5.57c-2.69-2.41-4.79-5.29-6.32-8.65
				c-1.53-3.36-2.3-7.07-2.3-11.14v-0.15c0-3.91,0.73-7.55,2.18-10.91c1.46-3.36,3.49-6.27,6.1-8.73c2.61-2.46,5.68-4.38,9.22-5.76
				c3.54-1.38,7.39-2.07,11.55-2.07c4.56,0,8.66,0.7,12.3,2.11c3.64,1.41,6.89,3.36,9.75,5.87l-9.86,11.89
				c-1.76-1.46-3.59-2.58-5.49-3.39c-1.91-0.8-3.96-1.2-6.17-1.2c-1.71,0-3.29,0.31-4.74,0.94c-1.46,0.63-2.71,1.49-3.76,2.6
				c-1.05,1.1-1.87,2.41-2.45,3.91c-0.58,1.5-0.87,3.16-0.87,4.97v0.15c0,1.86,0.31,3.56,0.94,5.12c0.63,1.55,1.49,2.88,2.6,3.99
				c1.1,1.1,2.42,1.96,3.95,2.56c1.53,0.6,3.22,0.9,5.08,0.9c1.5,0,2.71-0.1,3.61-0.3c0.9-0.2,1.71-0.5,2.41-0.9v-5.27h-9.03v-11.21
				h25.51v24.33c-2.86,2.35-6.25,4.25-10.16,5.7S229.39,233.5,224.57,233.5z"/>
			<path d="M271.3,179.32h17.46l22.2,53.05h-19.12l-2.78-7.08h-18.44l-2.71,7.08H249.1L271.3,179.32z M284.7,212.8l-4.82-12.79
				l-4.82,12.79H284.7z"/>
			<path d="M339.25,233.5c-3.66,0-7.14-0.65-10.42-1.96c-3.29-1.3-6.18-3.16-8.69-5.57c-2.51-2.41-4.5-5.29-5.98-8.65
				c-1.48-3.36-2.22-7.07-2.22-11.14v-0.15c0-3.91,0.72-7.55,2.15-10.91c1.43-3.36,3.41-6.27,5.95-8.73
				c2.53-2.46,5.5-4.38,8.92-5.76c3.41-1.38,7.08-2.07,10.99-2.07c2.91,0,5.58,0.34,8.01,1.01c2.43,0.68,4.64,1.62,6.62,2.82
				c1.98,1.2,3.74,2.65,5.27,4.33c1.53,1.68,2.85,3.52,3.95,5.53l-14.52,8.5c-1-1.91-2.25-3.45-3.73-4.63
				c-1.48-1.18-3.42-1.77-5.83-1.77c-1.5,0-2.86,0.3-4.06,0.9c-1.2,0.6-2.23,1.43-3.09,2.48c-0.85,1.05-1.52,2.28-1.99,3.69
				c-0.48,1.41-0.72,2.88-0.72,4.44v0.15c0,1.7,0.24,3.27,0.72,4.7c0.48,1.43,1.15,2.66,2.03,3.69c0.88,1.03,1.92,1.83,3.12,2.41
				c1.2,0.58,2.53,0.87,3.99,0.87c2.51,0,4.51-0.62,6.02-1.85c1.5-1.23,2.81-2.82,3.91-4.78l14.52,8.2c-1.1,1.96-2.41,3.8-3.91,5.53
				c-1.5,1.73-3.27,3.23-5.31,4.51c-2.03,1.28-4.34,2.3-6.92,3.05C345.44,233.12,342.51,233.5,339.25,233.5z"/>
		</g>
		<g>
			<path d="M91.47,251.87l-8.51,20.34h7.21l1.04-2.71h7.07l1.07,2.71h7.33l-8.51-20.34H91.47z M92.91,264.71l1.85-4.9l1.85,4.9
				H92.91z"/>
			<path d="M113.91,259.64v-3.17h-6.58v15.75h6.58v-4.01c0-1.75,0.36-3.02,1.08-3.82s1.77-1.2,3.16-1.2h0.69v-6.95
				c-1.31-0.06-2.35,0.23-3.12,0.86C114.96,257.73,114.35,258.58,113.91,259.64z"/>
			<path d="M127.73,252.51h-6.58v3.95h-1.85v5.05h1.85v5.42c0,1.92,0.51,3.34,1.52,4.25s2.5,1.37,4.45,1.37
				c0.81,0,1.58-0.08,2.31-0.25c0.73-0.16,1.35-0.38,1.87-0.65v-5.05c-0.71,0.31-1.38,0.46-1.99,0.46c-0.52,0-0.91-0.12-1.18-0.36
				c-0.27-0.24-0.4-0.65-0.4-1.25v-3.96h3.63v-5.05h-3.63V252.51z"/>
			<path d="M147.92,252.51h-6.58v3.95h-1.85v5.05h1.85v5.42c0,1.92,0.51,3.34,1.52,4.25s2.5,1.37,4.45,1.37
				c0.81,0,1.58-0.08,2.31-0.25c0.73-0.16,1.35-0.38,1.87-0.65v-5.05c-0.71,0.31-1.38,0.46-1.99,0.46c-0.52,0-0.91-0.12-1.18-0.36
				c-0.27-0.24-0.4-0.65-0.4-1.25v-3.96h3.63v-5.05h-3.63V252.51z"/>
			<path d="M166.81,258.63c-0.67-0.79-1.53-1.41-2.55-1.86c-1.03-0.45-2.24-0.68-3.65-0.68c-1.19,0-2.28,0.21-3.27,0.64
				c-0.99,0.42-1.84,1-2.55,1.74c-0.71,0.74-1.27,1.62-1.67,2.62c-0.4,1.01-0.61,2.1-0.61,3.27v0.06c0,1.23,0.21,2.35,0.62,3.35
				s1,1.86,1.76,2.57c0.76,0.71,1.67,1.26,2.74,1.66c1.07,0.39,2.24,0.59,3.53,0.59c1.71,0,3.14-0.32,4.28-0.95
				c1.14-0.63,2.11-1.46,2.9-2.48l-3.52-2.8c-0.52,0.54-1.04,0.94-1.54,1.21c-0.51,0.27-1.06,0.4-1.66,0.4
				c-0.71,0-1.33-0.18-1.85-0.53c-0.52-0.36-0.89-0.88-1.12-1.57h10.12c0.02-0.17,0.03-0.36,0.03-0.55c0-0.19,0-0.37,0-0.55
				c0-1.19-0.16-2.32-0.49-3.38C167.98,260.34,167.48,259.41,166.81,258.63z M158.56,262.98c0.1-0.73,0.33-1.31,0.69-1.73
				c0.37-0.42,0.83-0.64,1.38-0.64c0.58,0,1.07,0.21,1.47,0.62s0.64,1,0.72,1.74H158.56z"/>
			<path d="M184.23,258.25c-0.69-0.69-1.57-1.21-2.64-1.54c-1.07-0.34-2.41-0.5-4.02-0.5c-1.38,0-2.61,0.11-3.66,0.32
				c-1.06,0.21-2.05,0.49-2.97,0.84l1.15,4.35c0.69-0.27,1.39-0.48,2.09-0.65c0.7-0.16,1.46-0.25,2.27-0.25
				c1.02,0,1.76,0.2,2.22,0.59c0.46,0.39,0.69,0.96,0.69,1.69v0.26c-0.17-0.08-0.4-0.15-0.69-0.22c-0.29-0.07-0.6-0.13-0.94-0.19
				c-0.34-0.06-0.69-0.1-1.05-0.13c-0.37-0.03-0.71-0.04-1.04-0.04c-1.85,0-3.31,0.42-4.38,1.27c-1.08,0.85-1.62,2.06-1.62,3.63
				v0.06c0,0.79,0.12,1.48,0.37,2.08c0.25,0.6,0.61,1.1,1.07,1.51c0.46,0.42,1.01,0.73,1.65,0.94c0.63,0.21,1.33,0.32,2.08,0.32
				c0.98,0,1.84-0.18,2.58-0.53c0.74-0.36,1.39-0.83,1.95-1.43v1.59h6.55v-8.97c0-1.15-0.12-2.12-0.38-2.91
				C185.25,259.54,184.83,258.85,184.23,258.25z M179.41,266.38c0,0.75-0.19,1.34-0.58,1.77c-0.38,0.43-0.87,0.65-1.44,0.65
				c-0.42,0-0.78-0.14-1.07-0.42c-0.29-0.28-0.43-0.65-0.43-1.11v-0.06c0-0.5,0.17-0.92,0.52-1.25c0.35-0.34,0.85-0.5,1.5-0.5
				c0.27,0,0.54,0.02,0.81,0.07c0.27,0.05,0.5,0.11,0.69,0.19V266.38z"/>
			<path d="M214.49,264.5v-2.67c0-1.79-0.49-3.19-1.46-4.21c-0.97-1.02-2.31-1.53-4.01-1.53c-1.21,0-2.24,0.25-3.08,0.74
				c-0.84,0.49-1.6,1.11-2.27,1.86c-0.44-0.85-1.05-1.49-1.84-1.93c-0.79-0.44-1.72-0.66-2.79-0.66c-1.09,0-2.03,0.25-2.82,0.75
				c-0.79,0.5-1.43,1.08-1.93,1.73v-2.11h-6.58v15.75h6.58v-8.34c0-0.67,0.18-1.19,0.54-1.54c0.36-0.36,0.78-0.54,1.26-0.54
				c0.48,0,0.88,0.18,1.22,0.54c0.33,0.35,0.5,0.87,0.5,1.54v8.34h6.58v-8.34c0-0.67,0.18-1.19,0.54-1.54
				c0.36-0.36,0.78-0.54,1.26-0.54c0.48,0,0.88,0.18,1.22,0.54c0.33,0.35,0.5,0.87,0.5,1.54v8.34h1.94v0h154.31v-7.71H214.49z"/>
		</g>
	</g>
</g>
<g id="레이어_2">
	<g>
		<path d="M292.21,123.35V0H168.86l-17.31,17.31L134.24,0H10.89v123.35l17.31,17.31l-17.31,17.31v123.35h123.35l17.31-17.31
			l17.31,17.31h123.35V157.97l-17.31-17.31L292.21,123.35z M243.88,232.99H59.22V48.33h184.66V232.99z"/>
		<g>
			<g>
				<path d="M28.99,358.96c-5.76,0-11.13-0.79-16.11-2.38C7.9,355,3.61,352.61,0,349.44l10.09-12.03c3.07,2.37,6.3,4.07,9.69,5.09
					c3.39,1.02,6.76,1.53,10.09,1.53c1.72,0,2.96-0.21,3.72-0.65c0.75-0.43,1.13-1.02,1.13-1.78v-0.16c0-0.81-0.55-1.48-1.65-2.02
					c-1.11-0.54-3.16-1.1-6.18-1.7c-3.18-0.64-6.2-1.4-9.08-2.26c-2.88-0.86-5.41-1.96-7.59-3.31c-2.18-1.34-3.92-3.03-5.21-5.04
					c-1.29-2.02-1.94-4.53-1.94-7.55v-0.16c0-2.69,0.53-5.19,1.57-7.51c1.05-2.31,2.58-4.33,4.6-6.05c2.02-1.72,4.52-3.07,7.51-4.04
					c2.99-0.97,6.42-1.45,10.29-1.45c5.49,0,10.3,0.64,14.41,1.94s7.82,3.23,11.1,5.81l-9.21,12.76c-2.69-1.94-5.53-3.35-8.52-4.24
					c-2.99-0.89-5.8-1.33-8.44-1.33c-1.4,0-2.44,0.22-3.11,0.65c-0.68,0.43-1.01,0.99-1.01,1.7v0.16c0,0.38,0.11,0.73,0.32,1.05
					c0.21,0.32,0.61,0.63,1.17,0.93c0.56,0.3,1.33,0.58,2.3,0.85c0.97,0.27,2.21,0.54,3.71,0.81c3.61,0.64,6.89,1.43,9.85,2.34
					c2.96,0.92,5.5,2.09,7.63,3.51c2.13,1.43,3.77,3.14,4.92,5.13c1.16,1.99,1.74,4.41,1.74,7.27v0.16c0,2.96-0.59,5.62-1.78,7.99
					c-1.18,2.37-2.85,4.37-5,6.01c-2.15,1.64-4.78,2.91-7.87,3.8C36.19,358.52,32.75,358.96,28.99,358.96z"/>
				<path d="M78,300.99h18.73l23.82,56.92h-20.51l-2.99-7.59H77.27l-2.91,7.59H54.18L78,300.99z M92.37,336.92L87.2,323.2
					l-5.17,13.73H92.37z"/>
				<path d="M153.33,359.13c-4.42,0-8.55-0.7-12.39-2.1c-3.85-1.4-7.21-3.39-10.09-5.97c-2.88-2.58-5.14-5.68-6.78-9.29
					c-1.64-3.6-2.46-7.59-2.46-11.95v-0.16c0-4.2,0.78-8.1,2.34-11.71c1.56-3.6,3.74-6.73,6.54-9.36c2.8-2.64,6.1-4.7,9.89-6.18
					c3.8-1.48,7.92-2.22,12.39-2.22c4.9,0,9.3,0.75,13.2,2.26c3.9,1.51,7.39,3.61,10.46,6.3l-10.58,12.76
					c-1.88-1.56-3.85-2.77-5.89-3.63c-2.05-0.86-4.25-1.29-6.62-1.29c-1.83,0-3.53,0.34-5.09,1.01s-2.91,1.6-4.03,2.79
					c-1.13,1.18-2.01,2.58-2.62,4.2c-0.62,1.61-0.93,3.39-0.93,5.33v0.16c0,1.99,0.33,3.82,1.01,5.49c0.67,1.67,1.6,3.1,2.79,4.28
					c1.18,1.18,2.6,2.1,4.24,2.75c1.64,0.64,3.46,0.97,5.45,0.97c1.61,0,2.91-0.11,3.87-0.32c0.97-0.21,1.83-0.54,2.58-0.97v-5.65
					h-9.69v-12.03h27.37v26.1c-3.07,2.52-6.7,4.56-10.9,6.12C163.18,358.35,158.5,359.13,153.33,359.13z"/>
				<path d="M203.47,300.99h18.73l23.82,56.92h-20.51l-2.99-7.59h-19.78l-2.91,7.59h-20.19L203.47,300.99z M217.84,336.92
					l-5.17-13.73l-5.17,13.73H217.84z"/>
				<path d="M276.38,359.13c-3.93,0-7.66-0.7-11.18-2.1c-3.53-1.4-6.63-3.39-9.32-5.97c-2.69-2.58-4.83-5.68-6.42-9.29
					c-1.59-3.6-2.38-7.59-2.38-11.95v-0.16c0-4.2,0.77-8.1,2.3-11.71c1.53-3.6,3.66-6.73,6.38-9.36c2.72-2.64,5.91-4.7,9.57-6.18
					c3.66-1.48,7.59-2.22,11.79-2.22c3.12,0,5.99,0.36,8.6,1.09c2.61,0.73,4.98,1.74,7.11,3.03c2.13,1.29,4.01,2.84,5.65,4.64
					c1.64,1.8,3.06,3.78,4.24,5.93L287.12,324c-1.08-2.05-2.41-3.7-4-4.97c-1.59-1.26-3.67-1.9-6.26-1.9
					c-1.61,0-3.07,0.32-4.36,0.97c-1.29,0.65-2.4,1.53-3.31,2.66s-1.63,2.45-2.14,3.96c-0.51,1.51-0.77,3.1-0.77,4.76v0.16
					c0,1.83,0.25,3.51,0.77,5.04c0.51,1.53,1.24,2.85,2.18,3.96c0.94,1.1,2.06,1.96,3.35,2.58c1.29,0.62,2.72,0.93,4.28,0.93
					c2.69,0,4.84-0.66,6.46-1.98c1.61-1.32,3.01-3.03,4.2-5.13l15.58,8.8c-1.18,2.1-2.58,4.08-4.2,5.93
					c-1.61,1.86-3.51,3.47-5.69,4.84c-2.18,1.37-4.65,2.46-7.43,3.27C283.02,358.72,279.88,359.13,276.38,359.13z"/>
			</g>
		</g>
		<g>
			<path d="M15.22,372.69L3.99,399.53h9.52l1.37-3.58h9.33l1.41,3.58h9.67l-11.23-26.83H15.22z M17.12,389.63l2.44-6.47l2.43,6.47
				H17.12z"/>
			<path d="M44.83,382.93v-4.19h-8.68v20.78h8.68v-5.29c0-2.31,0.48-3.99,1.43-5.04c0.95-1.05,2.34-1.58,4.17-1.58h0.91v-9.17
				c-1.73-0.08-3.1,0.3-4.11,1.14C46.21,380.42,45.41,381.54,44.83,382.93z"/>
			<path d="M63.06,373.53h-8.68v5.21h-2.44v6.66h2.44v7.16c0,2.54,0.67,4.41,2.01,5.61s3.29,1.81,5.87,1.81
				c1.07,0,2.08-0.11,3.05-0.33c0.96-0.21,1.79-0.5,2.47-0.85v-6.66c-0.94,0.41-1.82,0.61-2.63,0.61c-0.68,0-1.2-0.16-1.56-0.47
				c-0.36-0.32-0.53-0.86-0.53-1.65v-5.23h4.79v-6.66h-4.79V373.53z"/>
			<path d="M89.71,373.53h-8.68v5.21h-2.44v6.66h2.44v7.16c0,2.54,0.67,4.41,2.01,5.61c1.34,1.2,3.29,1.81,5.87,1.81
				c1.07,0,2.08-0.11,3.05-0.33c0.96-0.21,1.79-0.5,2.47-0.85v-6.66c-0.94,0.41-1.82,0.61-2.63,0.61c-0.68,0-1.2-0.16-1.56-0.47
				c-0.36-0.32-0.53-0.86-0.53-1.65v-5.23h4.79v-6.66h-4.79V373.53z"/>
			<path d="M114.64,381.6c-0.89-1.04-2.01-1.86-3.37-2.46c-1.36-0.59-2.96-0.9-4.81-0.9c-1.57,0-3.01,0.28-4.32,0.84
				c-1.31,0.56-2.43,1.33-3.37,2.3c-0.94,0.98-1.68,2.13-2.21,3.46c-0.53,1.33-0.8,2.77-0.8,4.32v0.07c0,1.63,0.27,3.1,0.82,4.42
				c0.55,1.32,1.32,2.45,2.32,3.39c1,0.94,2.21,1.67,3.61,2.19c1.41,0.52,2.96,0.78,4.66,0.78c2.26,0,4.14-0.42,5.65-1.26
				c1.51-0.84,2.78-1.93,3.83-3.27l-4.64-3.69c-0.68,0.71-1.37,1.24-2.04,1.6c-0.67,0.36-1.4,0.53-2.19,0.53
				c-0.94,0-1.75-0.24-2.44-0.7c-0.68-0.47-1.18-1.16-1.48-2.08h13.36c0.02-0.23,0.04-0.47,0.04-0.72c0-0.25,0-0.49,0-0.72
				c0-1.57-0.22-3.06-0.65-4.45C116.18,383.86,115.52,382.64,114.64,381.6z M103.75,387.35c0.13-0.96,0.43-1.73,0.91-2.28
				c0.48-0.56,1.09-0.84,1.83-0.84c0.76,0,1.41,0.28,1.94,0.82c0.53,0.55,0.85,1.31,0.95,2.3H103.75z"/>
			<path d="M137.62,381.1c-0.91-0.91-2.07-1.59-3.48-2.04c-1.41-0.44-3.18-0.67-5.31-0.67c-1.83,0-3.44,0.14-4.84,0.42
				c-1.39,0.28-2.7,0.64-3.92,1.1l1.52,5.75c0.91-0.35,1.83-0.64,2.76-0.85c0.93-0.22,1.92-0.33,2.99-0.33
				c1.34,0,2.32,0.26,2.93,0.78c0.61,0.52,0.91,1.26,0.91,2.23v0.34c-0.23-0.1-0.53-0.2-0.91-0.28c-0.38-0.09-0.79-0.17-1.24-0.25
				c-0.45-0.08-0.91-0.13-1.39-0.17c-0.48-0.04-0.94-0.06-1.37-0.06c-2.44,0-4.36,0.56-5.79,1.68c-1.42,1.12-2.13,2.71-2.13,4.79
				v0.08c0,1.04,0.16,1.95,0.49,2.74c0.33,0.79,0.8,1.45,1.41,2c0.61,0.55,1.33,0.96,2.17,1.24c0.84,0.28,1.75,0.42,2.74,0.42
				c1.29,0,2.43-0.24,3.41-0.7c0.98-0.47,1.83-1.1,2.57-1.89v2.09h8.64v-11.84c0-1.52-0.16-2.8-0.5-3.84
				C138.97,382.81,138.41,381.89,137.62,381.1z M131.27,391.84c0,0.99-0.25,1.77-0.76,2.34c-0.51,0.57-1.14,0.85-1.9,0.85
				c-0.56,0-1.03-0.18-1.41-0.55c-0.38-0.37-0.57-0.85-0.57-1.47v-0.08c0-0.66,0.23-1.21,0.68-1.65c0.46-0.44,1.12-0.67,1.98-0.67
				c0.36,0,0.71,0.03,1.07,0.1c0.36,0.06,0.66,0.15,0.91,0.24V391.84z"/>
			<path d="M177.55,389.35v-3.53c0-2.36-0.64-4.21-1.93-5.56c-1.29-1.35-3.05-2.02-5.29-2.02c-1.6,0-2.96,0.33-4.06,0.97
				c-1.11,0.64-2.11,1.47-3,2.45c-0.58-1.12-1.39-1.97-2.43-2.55c-1.04-0.58-2.26-0.88-3.68-0.88c-1.44,0-2.68,0.33-3.72,0.99
				c-1.04,0.66-1.88,1.42-2.54,2.28v-2.78h-8.68v20.78h8.68v-11c0-0.89,0.24-1.57,0.72-2.04c0.48-0.47,1.03-0.71,1.66-0.71
				c0.63,0,1.16,0.24,1.6,0.71c0.44,0.47,0.66,1.15,0.66,2.04v11h8.68v-11c0-0.89,0.24-1.57,0.72-2.04
				c0.48-0.47,1.03-0.71,1.66-0.71s1.16,0.24,1.6,0.71c0.44,0.47,0.66,1.15,0.66,2.04v11h2.56v0h131.67v-10.17H177.55z"/>
		</g>
	</g>
</g>
</svg>
