<?xml version="1.0" encoding="utf-8"?>
<!-- Generator: Adobe Illustrator 27.4.0, SVG Export Plug-In . SVG Version: 6.00 Build 0)  -->
<svg version="1.1" id="레이어_1" xmlns="http://www.w3.org/2000/svg" xmlns:xlink="http://www.w3.org/1999/xlink" x="0px"
	 y="0px" viewBox="0 0 514.8 519.64" style="enable-background:new 0 0 514.8 519.64;" xml:space="preserve">
<style type="text/css">
	.st0{fill:#040000;}
	.st1{fill:none;stroke:#040000;stroke-width:7;stroke-miterlimit:10;}
</style>
<g>
	<path class="st0" d="M1452.19-294.1c9.63-3.84,19.66-14.89,22.07-18.06c5.96-7.84,8.16-16.26,6.52-25.03
		c-3.42-18.28-23.11-32.8-34.55-39.83l0,0c-6.26-3.85-12.8-7.1-19.48-9.96c7.11-8.86,23.34-25.58,50.44-35.12l-4.09-11.62
		c-33.3,11.72-51.62,32.89-58.3,42.02c-8.46-3.07-17.04-5.72-25.49-8.33c-7.36-2.27-14.97-4.63-22.24-7.19
		c-8.1-2.85-16.29-6.14-24.22-9.32c-10.83-4.34-22.03-8.84-33.41-12.41c-36.42-11.44-79.28-3.11-106.67,20.75
		c-13.25,11.54-20.81,28.85-21.28,48.73c-0.55,23.28,8.51,46.56,24.35,62.91c-0.76,13.89-1.66,72.56,33.98,111.62
		c21.05,23.07,50.79,34.77,88.37,34.77c0.03,0,0.07,0,0.11,0c3.21,0,48.97-0.64,84.32-35.79
		C1438.04-211.22,1451.34-247.59,1452.19-294.1z M1210.85-398.91c24.28-21.14,62.41-28.49,94.89-18.28
		c10.92,3.43,21.9,7.84,32.52,12.09c8.05,3.23,16.37,6.57,24.72,9.5c7.49,2.64,15.22,5.03,22.69,7.34
		c18.53,5.73,37.69,11.64,54.11,21.73c16.5,10.14,27.03,21.66,28.89,31.6c0.99,5.28-0.39,10.29-4.21,15.31
		c-4.56,6-14.84,14.52-18.38,14.52h-231.37c-13.42-13.86-21.39-34.35-20.92-54.08C1194.18-375.56,1200.24-389.67,1210.85-398.91z
		 M1328.22-162.49C1328.22-162.49,1328.22-162.49,1328.22-162.49c-33.98,0-60.65-10.33-79.27-30.7
		c-29.91-32.73-31.35-82.91-30.92-99.58h221.8c-1.05,42.37-13.07,75.31-35.78,97.96C1371.97-162.81,1328.85-162.49,1328.22-162.49z"
		/>
	<path class="st0" d="M1181.21-57.24c-31.06,26.85-69.24,74.09-74.7,146.67l12.28,0.92c4.12-54.75,27.71-101.17,70.13-137.98
		c31.75-27.55,62.77-39.11,63.3-39.3c0,0,0,0,0,0l-4.21-11.58C1246.69-98.02,1214.77-86.25,1181.21-57.24z"/>
	<path class="st0" d="M1617.32-247.66C1617.32-247.66,1617.32-247.66,1617.32-247.66c-0.58-3.35-3.77-5.6-7.12-5.02
		c-3.15,0.54-5.33,3.39-5.1,6.52c-0.58,0.99-4.05,5.44-22.3,13.22c-11.57,4.94-23.74,8.92-28.43,10.41l-1.16,0.37
		c-17.99,5.68-40.38,12.76-45.45,36.87c-3.11,14.79-2.96,27.46,0.42,37.92c-20.68,3.6-32.9,22.98-33.49,23.92l-83.59,146.32
		l-0.21,0.73c-0.35,1.25-8.4,30.72,7.81,46.51c6.23,6.07,14.92,9.11,25.98,9.11c8.17,0,17.63-1.66,28.34-4.98l1.86-0.58
		l105.25-136.52l0.3-0.66c0.55-1.22,12.18-27.47,10.16-50.6c7.33-0.27,12.43-1.16,13.02-1.26c0.14-0.03,0.29-0.06,0.43-0.09
		c22.94-5.86,35.41-30.37,37.07-72.85C1622.3-218.36,1617.53-246.47,1617.32-247.66z M1549.48-69.2L1447.54,63.02
		c-19.3,5.69-33.18,5.1-40.21-1.73c-8.81-8.55-6.55-26.57-4.75-33.68l82.63-144.65c0.82-1.26,12.06-17.98,28.79-18.58
		c1.29,1.83,2.71,3.56,4.28,5.19c10.89,11.2,26.62,15.06,39.93,16.08C1560.4-96.09,1551.2-73.25,1549.48-69.2z M1581.24-127.48
		c-2.97,0.48-37.48,5.64-54.14-11.55c-8.99-9.27-11.43-23.98-7.28-43.73c3.59-17.08,19.88-22.22,37.11-27.67l1.17-0.37
		c5.46-1.73,19.54-6.36,32.34-12.04c6.97-3.09,12.5-6,16.7-8.83C1611.11-196.34,1611.45-135.5,1581.24-127.48z"/>
</g>
<g>
	<path class="st0" d="M11.66,332.32V36.22c0-13.55,11.02-24.56,24.56-24.56H433.3c13.55,0,24.56,11.02,24.56,24.56v114.09h11.66
		V36.22C469.52,16.25,453.27,0,433.3,0H36.22C16.25,0,0,16.25,0,36.22v296.09c0,19.97,16.25,36.22,36.22,36.22h145.9l-19.47,91.48
		h-24.78v11.66h142.67v-11.66H174.57l19.47-91.48h108.12v-11.66H36.22C22.68,356.88,11.66,345.86,11.66,332.32z"/>
	<path class="st0" d="M293.61,56.5l-3.63,14.92c-2.79,11.46-16.91,21.25-27.22,28.39l-1.46,1.01c-10.48,7.29-21.37,12.97-32.9,18.99
		c-2.38,1.24-4.77,2.49-7.16,3.76c-8.63,4.56-13.93,12.15-15.33,21.95c-1.11,7.75,0.36,16.44,3.37,24.75
		c-14.28-0.16-25.24,9.08-25.81,9.57l-0.21,0.18l-81.82,84.91l8.4,8.09l81.4-84.48c1.48-1.19,12.3-9.39,23.99-5.58
		c3.31,5.73,7.19,10.85,11.2,14.74c4.9,4.76,10.28,7.71,15.8,9.36c0.57,10.52-5.21,18.77-5.95,19.76l-78.57,86.93l8.65,7.82
		l78.73-87.11l0.24-0.28c0.4-0.5,8.52-10.92,8.61-25.38c0.22,0,0.43,0.01,0.65,0.01c20.23,0,39.05-12.43,40.2-13.2l0.27-0.19
		c21.42-16.25,22.8-55.9,22.88-59.25c2.08-29.42-16.35-64.62-17.13-66.1L293.61,56.5z M306.29,135.48l-0.01,0.32
		c-0.01,0.37-0.89,36.94-18.12,50.22c-2.29,1.48-34.6,21.77-53.61,3.32c-9.8-9.51-19.01-28.73-17.09-42.17
		c0.88-6.12,3.9-10.47,9.24-13.3c2.37-1.25,4.74-2.49,7.1-3.72c11.34-5.92,23.07-12.04,34.16-19.75l1.45-1
		c8.52-5.91,19.31-13.38,26.12-22.98C300.59,98.5,307.53,118.53,306.29,135.48z"/>
	
		<ellipse transform="matrix(0.9925 -0.1222 0.1222 0.9925 -35.5727 55.2644)" class="st0" cx="432.83" cy="317.68" rx="17.83" ry="17.83"/>
	<path class="st0" d="M494.88,482.7l-9.96-101.77c18.24-15.05,29.88-37.81,29.88-63.24c0-45.2-36.77-81.97-81.97-81.97
		s-81.97,36.77-81.97,81.97c0,25.38,11.59,48.09,29.76,63.14L369.56,461c-0.44,3.22-1.03,6.51-1.64,9.99
		c-1.31,7.41-2.67,15.07-2.72,22.57c-0.05,8.22,2.22,14.84,6.58,19.13c3.68,3.62,8.34,5.44,13.42,5.28
		c14.84-0.49,30.81-17.09,45.89-34.04c0.85-0.96,1.66-1.87,2.41-2.7c1.7,1.75,3.82,4.05,5.68,6.06
		c16.33,17.69,30.91,32.37,43.01,32.36c0.72,0,1.43-0.05,2.13-0.16c3.15-0.47,7.49-2.27,10.3-8.15c3.4-7.12,2.06-16.12,0.97-23.34
		C495.3,486.07,495.03,484.27,494.88,482.7z M362.52,317.68c0-38.77,31.54-70.31,70.31-70.31s70.31,31.54,70.31,70.31
		s-31.54,70.31-70.31,70.31S362.52,356.45,362.52,317.68z M484.1,506.31c-0.73,1.53-1.28,1.61-1.52,1.65
		c-7.37,1.13-27.33-20.46-34.83-28.59c-8.59-9.31-10.9-11.81-14.57-11.89c-1.72-0.08-3.29,0.6-4.48,1.79
		c-1.66,1.66-3.82,4.09-6.32,6.9c-8.59,9.66-26.48,29.77-37.56,30.14c-1.94,0.07-3.44-0.53-4.86-1.93c-2.03-2-3.13-5.82-3.1-10.75
		c0.04-6.51,1.31-13.67,2.54-20.6c0.61-3.44,1.24-6.99,1.71-10.43l10.24-74.25c12.18,7.18,26.35,11.31,41.48,11.31
		c14.98,0,29.02-4.06,41.12-11.11l9.33,95.29c0.18,1.86,0.47,3.82,0.79,5.88C484.91,495.37,485.96,502.41,484.1,506.31z"/>
</g>
<path class="st1" d="M683.33,703.47"/>
<g>
	<path class="st0" d="M698.85,685.11c12.99-17.14,34.19-31.49,55.16-44.44c20.59-12.72,41.62-22.19,62.53-28.14
		c73.12-20.83,150.37,5.77,211.92,72.98l0.24,0.23c0.12,0.11,12.02,11.05,11.74,24.38c-0.15,7.39-4.07,14.34-11.63,20.64l4.48,5.38
		c9.21-7.67,13.97-16.4,14.15-25.92c0.3-15.87-12.36-28.11-13.92-29.55c-29.46-32.14-63.68-56.17-98.97-69.49
		c-39.6-14.96-79.95-16.77-119.92-5.38c-21.52,6.13-43.15,15.86-64.29,28.92c-21.55,13.31-43.38,28.12-57.06,46.17
		c-20.91,27.59-3.45,50.11,16.39,68.5c43.24,40.09,98.49,63.85,155.57,66.9l0.37-6.99c-55.45-2.97-109.14-26.07-151.18-65.04
		C693.12,724.51,682.33,706.9,698.85,685.11z"/>
	<path class="st0" d="M865.41,652.36c30.2,0,54.76,24.57,54.76,54.76c0,3.72-0.37,7.43-1.11,11.04l6.86,1.4
		c0.83-4.07,1.25-8.25,1.25-12.44c0-34.06-27.71-61.76-61.76-61.76s-61.76,27.71-61.76,61.76s27.71,61.76,61.76,61.76v-7
		c-30.2,0-54.76-24.57-54.76-54.76S835.21,652.36,865.41,652.36z"/>
	<path class="st0" d="M960.41,842.41c25.4,0,46.07-20.67,46.07-46.07c0-25.4-20.67-46.07-46.07-46.07s-46.07,20.67-46.07,46.07
		C914.34,821.75,935.01,842.41,960.41,842.41z M960.41,757.28c21.54,0,39.07,17.53,39.07,39.07s-17.53,39.07-39.07,39.07
		s-39.07-17.53-39.07-39.07S938.87,757.28,960.41,757.28z"/>
	<path class="st0" d="M960.41,846.06c-49.94,0-90.57,50.18-90.57,111.86v3.5h181.15v-3.5
		C1050.98,896.24,1010.35,846.06,960.41,846.06z M876.88,954.42c1.48-56.21,38.38-101.36,83.53-101.36s82.05,45.15,83.53,101.36
		H876.88z"/>
</g>
</svg>
