<?xml version="1.0" encoding="utf-8"?>
<!-- Generator: Adobe Illustrator 27.4.0, SVG Export Plug-In . SVG Version: 6.00 Build 0)  -->
<svg version="1.1" id="레이어_1" xmlns="http://www.w3.org/2000/svg" xmlns:xlink="http://www.w3.org/1999/xlink" x="0px"
	 y="0px" viewBox="0 0 602.7 595.93" style="enable-background:new 0 0 602.7 595.93;" xml:space="preserve">
<style type="text/css">
	.st0{fill:none;stroke:#040000;stroke-width:14.0969;stroke-miterlimit:10;}
	.st1{fill:none;stroke:#040000;stroke-width:14.0969;stroke-linejoin:round;stroke-miterlimit:10;}
	.st2{fill:none;stroke:#040000;stroke-width:14.0639;stroke-miterlimit:10;}
	.st3{fill:#040000;}
	.st4{fill:none;stroke:#040000;stroke-width:16.7297;stroke-miterlimit:10;}
</style>
<g>
	<path class="st0" d="M-338.21,60.57c-27.26-16.75-59.39-23.39-89.25-33.91c-22.03-7.76-43.46-17.8-65.73-24.8
		c-38.35-12.05-84.71-4.35-115.34,22.33c-32.86,28.62-27.24,87.75,6.14,119.74c0,0,267.32,0,267.71,0c8.28,0,22.2-13.57,26.64-19.4
		C-288.11,98.31-317.69,73.18-338.21,60.57z"/>
	<path class="st0" d="M-602.4,143.93c0,0-14.99,163.21,132.81,163.21c0,0,134.89,0.8,134.89-163.21"/>
	<path class="st0" d="M-367.78,46.32c0,0,19.75-33.6,66.34-50"/>
	<path class="st0" d="M-558.95,379.93c0,0-145.59,52.84-157.34,209"/>
	<path class="st1" d="M-145.65,203.81c0,0.01,22.31,129.16-32.88,143.25c0,0-97.45,17.61-78.67-71.62
		c5.07-24.09,27.96-30.83,48.58-37.35C-198.08,234.75-143.4,216.85-145.65,203.81z"/>
	<path class="st0" d="M-200.4,348.47c6.31,26.07-9.83,61.99-9.83,61.99l-118.59,153.81c-83.36,25.83-62.23-49.31-62.23-49.31
		l95.11-166.49c0,0,16.52-26.63,42.9-24.59"/>
</g>
<g>
	<path class="st2" d="M1040.52,361.15h-320.8c-20.25,0-36.66-16.42-36.66-36.66V-32.69c0-20.25,16.42-36.66,36.66-36.66h479
		c20.25,0,36.66,16.42,36.66,36.66v137.63"/>
	<path class="st2" d="M1032.66,11.44c0,0,22.34,42.2,19.86,76.13c0,0-0.83,47.99-24.82,66.2c0,0-45.51,30.61-73.64,3.31
		c-17.96-17.43-37.34-62.59-7.87-78.18c16.7-8.83,33.34-16.95,49.05-27.87C1008.74,41.64,1028.48,28.59,1032.66,11.44z"/>
	<path class="st2" d="M803.45,248.09l98.47-102.19c0,0,17.88-15.38,37.59-7.69"/>
	<path class="st2" d="M871.48,306.84l94.98-105.09c0,0,11.58-14.57,8.27-33.35"/>
	<line class="st2" x1="904.4" y1="361.15" x2="877.92" y2="485.57"/>
	<line class="st2" x1="842.34" y1="485.57" x2="1014.45" y2="485.57"/>
	<circle class="st2" cx="1198.15" cy="306.84" r="91.85"/>
	<circle class="st3" cx="1198.15" cy="306.84" r="21.51"/>
	<path class="st2" d="M1142.67,380.04c-2.59,18.8-5.18,37.61-7.78,56.41c-2.03,14.74-4.06,29.49-6.1,44.23
		c-1.71,12.41-5.12,25.86-5.2,38.36c-0.04,6.22,1.21,13.45,5.84,18.02c19.51,19.22,56.97-30.64,68.71-42.38
		c3.22-3.22,55.28,69.76,68.19,42.74c4.12-8.62,0.55-21.76-0.34-30.82c-1.38-14.05-2.75-28.09-4.13-42.14
		c-2.52-25.78-5.05-51.57-7.57-77.35c-0.23-2.35-0.46-4.71-0.69-7.06"/>
</g>
<path class="st4" d="M0.43,172.98"/>
<g>
	<path class="st3" d="M26.8,143.75c21.1-27.84,55.64-51.22,89.82-72.33c33.56-20.73,67.84-36.16,101.89-45.86
		C337.58-8.36,463.38,35,563.66,144.49l0.47,0.47c0.19,0.17,19.22,17.7,18.77,38.9c-0.25,11.69-6.49,22.72-18.56,32.77l8.96,10.75
		c15.35-12.79,23.29-27.38,23.6-43.34c0.5-26.34-20.33-46.63-23.12-49.23c-48.28-52.66-104.38-92.04-162.25-113.9
		c-65-24.55-131.23-27.52-196.84-8.83c-35.29,10.05-70.76,26-105.41,47.41c-35.34,21.83-71.13,46.12-93.62,75.79
		c-15.7,20.72-19.61,42.01-11.61,63.3c7.49,19.93,24.54,37.4,38.55,50.4C77.33,281.2,117.04,307.11,160.6,326
		c44.27,19.2,90.39,30.2,137.09,32.69l0.75-13.98c-90.34-4.83-177.82-42.47-246.33-105.99C17.81,206.92,0.38,178.61,26.8,143.75z"/>
	<path class="st3" d="M298.07,90.71c48.66,0,88.25,39.59,88.25,88.25c0,5.99-0.6,11.98-1.79,17.79l13.72,2.81
		c1.38-6.74,2.08-13.67,2.08-20.6c0-56.38-45.87-102.25-102.25-102.25s-102.25,45.87-102.25,102.25S241.69,281.2,298.07,281.2v-14
		c-48.66,0-88.25-39.59-88.25-88.25S249.41,90.71,298.07,90.71z"/>
	<path class="st3" d="M453.36,401.4c42.23,0,76.59-34.36,76.59-76.59s-34.36-76.59-76.59-76.59s-76.59,34.36-76.59,76.59
		S411.13,401.4,453.36,401.4z M453.36,262.22c34.51,0,62.59,28.08,62.59,62.59s-28.08,62.59-62.59,62.59s-62.59-28.08-62.59-62.59
		S418.85,262.22,453.36,262.22z"/>
	<path class="st3" d="M559.47,459.29c-28.24-35.14-65.92-54.5-106.11-54.5c-40.18,0-77.87,19.35-106.11,54.5
		c-27.88,34.69-43.23,80.73-43.23,129.64v7H602.7v-7C602.7,540.03,587.35,493.99,559.47,459.29z M318.13,581.93
		c2.93-90.58,62.46-163.13,135.23-163.13s132.3,72.55,135.23,163.13H318.13z"/>
</g>
</svg>
