<?xml version="1.0" encoding="utf-8"?>
<!-- Generator: Adobe Illustrator 27.4.0, SVG Export Plug-In . SVG Version: 6.00 Build 0)  -->
<svg version="1.1" id="레이어_1" xmlns="http://www.w3.org/2000/svg" xmlns:xlink="http://www.w3.org/1999/xlink" x="0px"
	 y="0px" viewBox="0 0 514.8 524.37" style="enable-background:new 0 0 514.8 524.37;" xml:space="preserve">
<style type="text/css">
	.st0{fill:#040000;}
	.st1{fill:none;stroke:#040000;stroke-width:7;stroke-miterlimit:10;}
</style>
<g>
	<path class="st0" d="M345.68,139.91c9.63-3.84,19.66-14.89,22.07-18.06c5.96-7.84,8.16-16.26,6.52-25.03
		c-3.42-18.28-23.11-32.8-34.55-39.83l0,0c-6.26-3.85-12.8-7.1-19.48-9.96c7.11-8.86,23.34-25.58,50.44-35.12L366.58,0.3
		c-33.3,11.72-51.62,32.89-58.3,42.02c-8.46-3.07-17.04-5.72-25.49-8.33c-7.36-2.27-14.97-4.63-22.24-7.19
		c-8.1-2.85-16.29-6.14-24.22-9.32c-10.83-4.34-22.03-8.84-33.41-12.41C166.5-6.37,123.63,1.97,96.25,25.82
		C83,37.36,75.44,54.67,74.96,74.55c-0.55,23.28,8.51,46.56,24.35,62.91c-0.76,13.89-1.66,72.56,33.98,111.62
		c21.05,23.07,50.79,34.77,88.37,34.77c0.03,0,0.07,0,0.11,0c3.21,0,48.97-0.64,84.32-35.79
		C331.52,222.79,344.82,186.43,345.68,139.91z M104.34,35.11c24.28-21.14,62.41-28.49,94.89-18.28c10.92,3.43,21.9,7.84,32.52,12.09
		c8.05,3.23,16.37,6.57,24.72,9.5c7.49,2.64,15.22,5.03,22.69,7.34c18.53,5.73,37.69,11.64,54.11,21.73
		c16.5,10.14,27.03,21.66,28.89,31.6c0.99,5.28-0.39,10.29-4.21,15.31c-4.56,6-14.84,14.52-18.38,14.52H108.2
		c-13.42-13.86-21.39-34.35-20.92-54.08C87.67,58.46,93.73,44.35,104.34,35.11z M221.71,271.53
		C221.71,271.53,221.7,271.53,221.71,271.53c-33.98,0-60.65-10.33-79.27-30.7c-29.91-32.73-31.35-82.91-30.92-99.58h221.8
		c-1.05,42.37-13.07,75.31-35.78,97.96C265.45,271.21,222.34,271.53,221.71,271.53z"/>
	<path class="st0" d="M74.7,376.77C43.63,403.63,5.46,450.87,0,523.45l12.28,0.92c4.12-54.75,27.71-101.17,70.13-137.98
		c31.75-27.55,62.77-39.11,63.3-39.3c0,0,0,0,0,0l-4.21-11.58C140.17,335.99,108.26,347.77,74.7,376.77z"/>
	<path class="st0" d="M510.81,186.36C510.81,186.36,510.81,186.36,510.81,186.36c-0.58-3.35-3.77-5.6-7.12-5.02
		c-3.15,0.54-5.33,3.39-5.1,6.52c-0.58,0.99-4.05,5.44-22.3,13.22c-11.57,4.94-23.74,8.92-28.43,10.41l-1.16,0.37
		c-17.99,5.68-40.38,12.76-45.45,36.87c-3.11,14.79-2.96,27.46,0.42,37.92c-20.68,3.6-32.9,22.98-33.49,23.92L284.6,456.88
		l-0.21,0.73c-0.35,1.25-8.4,30.72,7.81,46.51c6.23,6.07,14.92,9.11,25.98,9.11c8.17,0,17.63-1.66,28.34-4.98l1.86-0.58
		l105.25-136.52l0.3-0.66c0.55-1.22,12.18-27.47,10.16-50.6c7.33-0.27,12.43-1.16,13.02-1.26c0.14-0.03,0.29-0.06,0.43-0.09
		c22.94-5.86,35.41-30.37,37.07-72.85C515.78,215.65,511.01,187.54,510.81,186.36z M442.97,364.82L341.02,497.04
		c-19.3,5.69-33.18,5.1-40.21-1.73c-8.81-8.55-6.55-26.57-4.75-33.68l82.63-144.65c0.82-1.26,12.06-17.98,28.79-18.58
		c1.29,1.83,2.71,3.56,4.28,5.19c10.89,11.2,26.62,15.06,39.93,16.08C453.88,337.92,444.68,360.77,442.97,364.82z M474.72,306.54
		c-2.97,0.48-37.48,5.64-54.14-11.55c-8.99-9.27-11.43-23.98-7.28-43.73c3.59-17.08,19.88-22.22,37.11-27.67l1.17-0.37
		c5.46-1.73,19.54-6.36,32.34-12.04c6.97-3.09,12.5-6,16.7-8.83C504.59,237.68,504.93,298.52,474.72,306.54z"/>
</g>
<g>
	<path class="st0" d="M731.45,431.64V253.86c0-8.13,6.62-14.75,14.75-14.75h238.41c8.13,0,14.75,6.62,14.75,14.75v68.5h7v-68.5
		c0-11.99-9.76-21.75-21.75-21.75H746.2c-11.99,0-21.75,9.76-21.75,21.75v177.78c0,11.99,9.76,21.75,21.75,21.75h87.6l-11.69,54.93
		h-14.88v7h85.67v-7h-63.63l11.69-54.93h64.92v-7H746.2C738.07,446.39,731.45,439.77,731.45,431.64z"/>
	<path class="st0" d="M900.74,266.03l-2.18,8.96c-1.67,6.88-10.15,12.76-16.35,17.05l-0.88,0.61c-6.29,4.38-12.83,7.79-19.75,11.4
		c-1.43,0.75-2.86,1.5-4.3,2.25c-5.18,2.74-8.36,7.3-9.2,13.18c-0.66,4.65,0.22,9.87,2.02,14.86c-8.57-0.1-15.16,5.45-15.5,5.75
		l-0.12,0.11l-49.12,50.98l5.04,4.86l48.88-50.72c0.89-0.71,7.39-5.64,14.4-3.35c1.99,3.44,4.32,6.52,6.72,8.85
		c2.94,2.86,6.17,4.63,9.49,5.62c0.34,6.31-3.13,11.27-3.57,11.87l-47.18,52.2l5.19,4.69l47.27-52.3l0.14-0.17
		c0.24-0.3,5.11-6.56,5.17-15.24c0.13,0,0.26,0.01,0.39,0.01c12.15,0,23.44-7.46,24.13-7.93l0.16-0.12
		c12.86-9.76,13.69-33.56,13.74-35.57c1.25-17.67-9.82-38.8-10.29-39.69L900.74,266.03z M908.35,313.46l-0.01,0.19
		c0,0.22-0.53,22.18-10.88,30.15c-1.37,0.89-20.77,13.07-32.19,2c-5.89-5.71-11.42-17.25-10.26-25.32c0.53-3.68,2.34-6.29,5.55-7.98
		c1.42-0.75,2.85-1.5,4.27-2.24c6.81-3.55,13.85-7.23,20.51-11.86l0.87-0.6c5.12-3.55,11.6-8.03,15.69-13.8
		C904.94,291.25,909.1,303.28,908.35,313.46z"/>
	
		<ellipse transform="matrix(0.9925 -0.1222 0.1222 0.9925 -44.2904 123.437)" class="st0" cx="984.33" cy="422.85" rx="10.71" ry="10.71"/>
	<path class="st0" d="M1021.59,521.93l-5.98-61.11c10.95-9.03,17.94-22.7,17.94-37.97c0-27.14-22.08-49.22-49.22-49.22
		s-49.22,22.08-49.22,49.22c0,15.24,6.96,28.88,17.87,37.91l-6.64,48.14c-0.27,1.93-0.62,3.91-0.99,6
		c-0.79,4.45-1.6,9.05-1.63,13.55c-0.03,4.94,1.33,8.91,3.95,11.48c2.21,2.18,5.01,3.26,8.06,3.17c8.91-0.29,18.5-10.26,27.55-20.44
		c0.51-0.57,1-1.12,1.45-1.62c1.02,1.05,2.29,2.43,3.41,3.64c9.8,10.62,18.56,19.43,25.82,19.43c0.43,0,0.86-0.03,1.28-0.09
		c1.89-0.29,4.5-1.37,6.18-4.89c2.04-4.28,1.23-9.68,0.58-14.02C1021.84,523.96,1021.68,522.87,1021.59,521.93z M942.12,422.85
		c0-23.28,18.94-42.22,42.22-42.22s42.22,18.94,42.22,42.22s-18.94,42.22-42.22,42.22S942.12,446.13,942.12,422.85z M1015.12,536.11
		c-0.44,0.92-0.77,0.97-0.91,0.99c-4.42,0.68-16.41-12.29-20.91-17.16c-5.16-5.59-6.55-7.09-8.75-7.14
		c-1.04-0.05-1.97,0.36-2.69,1.08c-1,1-2.29,2.45-3.79,4.14c-5.16,5.8-15.9,17.88-22.55,18.1c-1.17,0.04-2.06-0.32-2.92-1.16
		c-1.22-1.2-1.88-3.49-1.86-6.45c0.02-3.91,0.79-8.21,1.52-12.37c0.37-2.06,0.74-4.2,1.03-6.26l6.15-44.58
		c7.31,4.31,15.82,6.79,24.91,6.79c8.99,0,17.43-2.44,24.69-6.67l5.6,57.21c0.11,1.12,0.29,2.29,0.47,3.53
		C1015.6,529.54,1016.23,533.76,1015.12,536.11z"/>
</g>
<path class="st1" d="M683.33,705.83"/>
<g>
	<path class="st0" d="M698.85,687.48c12.99-17.14,34.19-31.49,55.16-44.44c20.59-12.72,41.62-22.19,62.53-28.14
		c73.12-20.83,150.37,5.77,211.92,72.98l0.24,0.23c0.12,0.11,12.02,11.05,11.74,24.38c-0.15,7.39-4.07,14.34-11.63,20.64l4.48,5.38
		c9.21-7.67,13.97-16.4,14.15-25.92c0.3-15.87-12.36-28.11-13.92-29.55c-29.46-32.14-63.68-56.17-98.97-69.49
		c-39.6-14.96-79.95-16.77-119.92-5.38c-21.52,6.13-43.15,15.86-64.29,28.92c-21.55,13.31-43.38,28.12-57.06,46.17
		c-20.91,27.59-3.45,50.11,16.39,68.5c43.24,40.09,98.49,63.85,155.57,66.9l0.37-6.99c-55.45-2.97-109.14-26.07-151.18-65.04
		C693.12,726.88,682.33,709.27,698.85,687.48z"/>
	<path class="st0" d="M865.41,654.72c30.2,0,54.76,24.57,54.76,54.76c0,3.72-0.37,7.43-1.11,11.04l6.86,1.4
		c0.83-4.07,1.25-8.25,1.25-12.44c0-34.06-27.71-61.76-61.76-61.76s-61.76,27.71-61.76,61.76s27.71,61.76,61.76,61.76v-7
		c-30.2,0-54.76-24.57-54.76-54.76S835.21,654.72,865.41,654.72z"/>
	<path class="st0" d="M960.41,844.78c25.4,0,46.07-20.67,46.07-46.07c0-25.4-20.67-46.07-46.07-46.07s-46.07,20.67-46.07,46.07
		C914.34,824.11,935.01,844.78,960.41,844.78z M960.41,759.64c21.54,0,39.07,17.53,39.07,39.07s-17.53,39.07-39.07,39.07
		s-39.07-17.53-39.07-39.07S938.87,759.64,960.41,759.64z"/>
	<path class="st0" d="M960.41,848.42c-49.94,0-90.57,50.18-90.57,111.86v3.5h181.15v-3.5
		C1050.98,898.6,1010.35,848.42,960.41,848.42z M876.88,956.78c1.48-56.21,38.38-101.36,83.53-101.36s82.05,45.15,83.53,101.36
		H876.88z"/>
</g>
</svg>
