<?xml version="1.0" encoding="utf-8"?>
<!-- Generator: Adobe Illustrator 27.4.0, SVG Export Plug-In . SVG Version: 6.00 Build 0)  -->
<svg version="1.1" xmlns="http://www.w3.org/2000/svg" xmlns:xlink="http://www.w3.org/1999/xlink" x="0px" y="0px"
	 viewBox="0 0 692 74.11" style="enable-background:new 0 0 692 74.11;" xml:space="preserve">
<g id="레이어_1">
	<g>
		<path d="M-37.65-653.96c-0.45,3.71-0.9,7.46-1.34,11.23c-0.45,3.78-0.9,7.58-1.34,11.42h-0.48c-0.71-3.84-1.39-7.66-2.06-11.47
			c-0.67-3.81-1.36-7.54-2.06-11.18l-7.39-32.64h-14.5l-7.3,32.64c-0.71,3.71-1.41,7.46-2.11,11.23c-0.7,3.78-1.41,7.58-2.11,11.42
			h-0.38c-0.45-3.84-0.91-7.65-1.39-11.42c-0.48-3.78-0.98-7.52-1.49-11.23l-4.51-32.64h-17.47l12.96,71.52h21.22l6.24-31.1
			c0.51-2.75,1.01-5.54,1.49-8.35c0.48-2.82,0.94-5.57,1.39-8.26h0.38c0.32,2.69,0.72,5.44,1.2,8.26c0.48,2.82,1.01,5.6,1.58,8.35
			l6.43,31.1h21.6l12.38-71.52h-16.22L-37.65-653.96z"/>
		<polygon points="10.16,-644.65 34.06,-644.65 34.06,-659.05 10.16,-659.05 10.16,-672.3 38.28,-672.3 38.28,-686.6 -7.03,-686.6 
			-7.03,-615.08 39.34,-615.08 39.34,-629.48 10.16,-629.48 		"/>
		<path d="M88.59-686.6l-22.18,71.52h17.47l4.1-16.42h21.17l4.1,16.42h18.05l-22.18-71.52H88.59z M91.3-644.75l1.51-6.05
			c0.9-3.58,1.82-7.38,2.78-11.38c0.96-4,1.86-7.86,2.69-11.57h0.38c0.96,3.65,1.9,7.49,2.83,11.52c0.93,4.03,1.87,7.84,2.83,11.42
			l1.51,6.05H91.3z"/>
		<path d="M189.14-650.41c2.53-3.52,3.79-8.06,3.79-13.63c0-5.76-1.26-10.29-3.79-13.58c-2.53-3.3-5.9-5.62-10.13-6.96
			c-4.22-1.34-8.9-2.02-14.02-2.02h-26.21v71.52h17.18v-25.15h8.26l13.15,25.15h19.2l-15.97-28.28
			C184.1-645,186.94-647.35,189.14-650.41z M155.98-672.97h7.68c4.09,0,7.21,0.64,9.36,1.92c2.14,1.28,3.22,3.62,3.22,7.01
			c0,3.33-1.07,5.87-3.22,7.63c-2.15,1.76-5.27,2.64-9.36,2.64h-7.68V-672.97z"/>
		<polygon points="253.13,-629.48 251.24,-629.48 223.94,-629.48 223.94,-644.65 247.85,-644.65 247.85,-659.05 223.94,-659.05 
			223.94,-672.3 252.07,-672.3 252.07,-686.6 206.76,-686.6 206.76,-615.08 251.24,-615.08 253.13,-615.08 588.4,-615.08 
			588.4,-629.48 		"/>
	</g>
	<g>
		<path d="M45.98-491.99l-8.06,32.64c-1.02,3.84-1.94,7.62-2.74,11.33c-0.8,3.71-1.74,7.55-2.83,11.52h-0.48
			c-1.02-3.97-1.94-7.81-2.74-11.52c-0.8-3.71-1.74-7.49-2.83-11.33l-8.16-32.64H0l21.41,71.52h20.64l21.41-71.52H45.98z"/>
		<path d="M81.22-491.99l-22.18,71.52h17.47l4.1-16.42h21.17l4.1,16.42h18.05l-22.18-71.52H81.22z M83.93-450.14l1.51-6.05
			c0.89-3.58,1.82-7.38,2.78-11.38c0.96-4,1.86-7.86,2.69-11.57h0.38c0.96,3.65,1.9,7.49,2.83,11.52c0.93,4.03,1.87,7.84,2.83,11.42
			l1.51,6.05H83.93z"/>
		<polygon points="148.61,-491.99 131.42,-491.99 131.42,-420.47 176.45,-420.47 176.45,-434.87 148.61,-434.87 		"/>
		<path d="M224.73-452.25c0,4.48-0.46,8.06-1.39,10.75c-0.93,2.69-2.29,4.62-4.08,5.81c-1.79,1.19-4,1.78-6.62,1.78
			c-2.62,0-4.82-0.59-6.58-1.78c-1.76-1.18-3.09-3.12-3.98-5.81c-0.9-2.69-1.34-6.27-1.34-10.75v-39.74h-17.09v37.92
			c0,6.02,0.61,11.23,1.82,15.65c1.21,4.42,3.04,8.05,5.47,10.9c2.43,2.85,5.46,4.96,9.07,6.34c3.62,1.38,7.82,2.06,12.62,2.06
			c4.74,0,8.89-0.69,12.48-2.06c3.58-1.38,6.58-3.49,8.98-6.34c2.4-2.85,4.19-6.48,5.38-10.9c1.18-4.42,1.78-9.63,1.78-15.65v-37.92
			h-16.51V-452.25z"/>
		<polygon points="303.65,-434.87 301.28,-434.87 274.46,-434.87 274.46,-450.04 298.37,-450.04 298.37,-464.44 274.46,-464.44 
			274.46,-477.69 302.59,-477.69 302.59,-491.99 257.28,-491.99 257.28,-420.47 301.28,-420.47 303.65,-420.47 692,-420.47 
			692,-434.87 		"/>
	</g>
	<g>
		<path d="M-20.66-304.77c-4.32-1.44-9.1-2.16-14.35-2.16h-25.15v71.52h17.18v-23.71h8.35c5.06,0,9.73-0.86,14.02-2.59
			c4.29-1.73,7.73-4.4,10.32-8.02c2.59-3.62,3.89-8.24,3.89-13.87c0-5.89-1.3-10.53-3.89-13.92
			C-12.88-300.91-16.34-303.33-20.66-304.77z M-26.18-275.49c-2.05,1.89-5.15,2.83-9.31,2.83h-7.49v-20.64h7.01
			c4.16,0,7.34,0.72,9.55,2.16s3.31,3.95,3.31,7.54C-23.11-280.08-24.13-277.38-26.18-275.49z"/>
		<path d="M85.18-306.93l-21.97,70.86l-15.6-27.62c3.49-1.63,6.33-3.98,8.53-7.05c2.53-3.52,3.79-8.06,3.79-13.63
			c0-5.76-1.26-10.29-3.79-13.58c-2.53-3.3-5.9-5.62-10.13-6.96c-4.22-1.34-8.9-2.02-14.02-2.02H5.79v71.52h17.19v-25.15h8.26
			l13.15,25.15H63h0.58h16.9l4.1-16.42h21.17l4.1,16.42h18.05l-22.18-71.52H85.18z M22.97-293.3h7.68c4.09,0,7.21,0.64,9.36,1.92
			c2.14,1.28,3.22,3.62,3.22,7.01c0,3.33-1.07,5.87-3.22,7.63c-2.14,1.76-5.27,2.64-9.36,2.64h-7.68V-293.3z M87.89-265.07
			l1.51-6.05c0.9-3.58,1.82-7.38,2.78-11.38c0.96-4,1.86-7.86,2.69-11.57h0.38c0.96,3.65,1.9,7.49,2.83,11.52
			c0.93,4.03,1.87,7.84,2.83,11.42l1.51,6.05H87.89z"/>
		<path d="M172.2-250.77c-2.27,1.28-4.85,1.92-7.73,1.92c-3.33,0-6.24-0.88-8.74-2.64c-2.5-1.76-4.43-4.32-5.81-7.68
			c-1.38-3.36-2.06-7.41-2.06-12.14c0-4.67,0.75-8.66,2.26-11.95c1.5-3.3,3.54-5.82,6.1-7.58c2.56-1.76,5.38-2.64,8.45-2.64
			c2.56,0,4.83,0.51,6.81,1.54c1.98,1.02,3.87,2.37,5.66,4.03l8.93-10.94c-2.43-2.5-5.49-4.67-9.17-6.53
			c-3.68-1.86-7.86-2.78-12.53-2.78c-4.54,0-8.86,0.83-12.96,2.5c-4.1,1.67-7.73,4.1-10.9,7.3c-3.17,3.2-5.66,7.12-7.49,11.76
			c-1.82,4.64-2.74,9.94-2.74,15.89c0,6.02,0.88,11.31,2.64,15.89c1.76,4.58,4.19,8.42,7.3,11.52c3.1,3.11,6.67,5.42,10.7,6.96
			s8.32,2.3,12.86,2.3c4.67,0,8.98-0.88,12.91-2.64c3.94-1.76,7.41-4.4,10.42-7.92l-9.02-10.75
			C176.44-253.59,174.47-252.05,172.2-250.77z"/>
		<polygon points="190.2,-292.63 209.5,-292.63 209.5,-235.41 226.68,-235.41 226.68,-292.63 246.08,-292.63 246.08,-306.93 
			190.2,-306.93 		"/>
		<rect x="257.11" y="-306.93" width="17.19" height="71.52"/>
		<path d="M329.36-250.77c-2.27,1.28-4.85,1.92-7.73,1.92c-3.33,0-6.24-0.88-8.74-2.64c-2.5-1.76-4.43-4.32-5.81-7.68
			c-1.38-3.36-2.06-7.41-2.06-12.14c0-4.67,0.75-8.66,2.26-11.95c1.5-3.3,3.54-5.82,6.1-7.58c2.56-1.76,5.38-2.64,8.45-2.64
			c2.56,0,4.83,0.51,6.81,1.54c1.98,1.02,3.87,2.37,5.66,4.03l8.93-10.94c-2.43-2.5-5.49-4.67-9.17-6.53
			c-3.68-1.86-7.86-2.78-12.53-2.78c-4.54,0-8.87,0.83-12.96,2.5c-4.1,1.67-7.73,4.1-10.9,7.3c-3.17,3.2-5.66,7.12-7.49,11.76
			c-1.82,4.64-2.74,9.94-2.74,15.89c0,6.02,0.88,11.31,2.64,15.89c1.76,4.58,4.19,8.42,7.29,11.52c3.1,3.11,6.67,5.42,10.71,6.96
			c4.03,1.54,8.32,2.3,12.86,2.3c4.67,0,8.98-0.88,12.91-2.64c3.94-1.76,7.41-4.4,10.42-7.92l-9.02-10.75
			C333.59-253.59,331.63-252.05,329.36-250.77z"/>
		<polygon points="401.11,-249.81 394.39,-249.81 371.93,-249.81 371.93,-264.98 395.83,-264.98 395.83,-279.38 371.93,-279.38 
			371.93,-292.63 400.06,-292.63 400.06,-306.93 354.75,-306.93 354.75,-235.41 394.39,-235.41 401.11,-235.41 631.84,-235.41 
			631.84,-249.81 		"/>
	</g>
	<g>
		<path d="M49.87,4.32C44.98,1.44,39.26,0,32.74,0c-6.46,0-12.16,1.42-17.09,4.27c-4.93,2.85-8.77,7.01-11.52,12.48
			C1.38,22.22,0,28.86,0,36.67c0,7.81,1.38,14.51,4.13,20.11c2.75,5.6,6.59,9.89,11.52,12.86c4.93,2.98,10.62,4.46,17.09,4.46
			c6.53,0,12.24-1.49,17.14-4.46s8.72-7.26,11.47-12.86c2.75-5.6,4.13-12.3,4.13-20.11c0-7.81-1.38-14.43-4.13-19.87
			C58.59,11.36,54.77,7.2,49.87,4.32z M46.13,48.67c-1.25,3.39-3.01,6.02-5.28,7.87c-2.27,1.86-4.98,2.79-8.11,2.79
			c-3.14,0-5.84-0.93-8.11-2.79c-2.27-1.86-4.02-4.48-5.23-7.87c-1.22-3.39-1.82-7.39-1.82-12c0-4.61,0.61-8.56,1.82-11.86
			c1.22-3.3,2.96-5.81,5.23-7.54c2.27-1.73,4.98-2.59,8.11-2.59c3.13,0,5.84,0.86,8.11,2.59c2.27,1.73,4.03,4.24,5.28,7.54
			c1.25,3.3,1.87,7.25,1.87,11.86C48,41.28,47.38,45.28,46.13,48.67z"/>
		<path d="M119.42,40.99c0,4.48-0.46,8.06-1.39,10.75c-0.93,2.69-2.29,4.62-4.08,5.81c-1.79,1.18-4,1.78-6.62,1.78
			c-2.62,0-4.82-0.59-6.58-1.78c-1.76-1.18-3.09-3.12-3.98-5.81c-0.9-2.69-1.34-6.27-1.34-10.75V1.25H78.34v37.92
			c0,6.02,0.61,11.23,1.82,15.65c1.21,4.42,3.04,8.05,5.47,10.9c2.43,2.85,5.46,4.96,9.07,6.34c3.62,1.38,7.82,2.06,12.62,2.06
			c4.73,0,8.89-0.69,12.48-2.06c3.58-1.38,6.58-3.49,8.98-6.34c2.4-2.85,4.19-6.48,5.38-10.9c1.18-4.42,1.78-9.63,1.78-15.65V1.25
			h-16.51V40.99z"/>
		<polygon points="146.49,15.55 165.79,15.55 165.79,72.77 182.97,72.77 182.97,15.55 202.37,15.55 202.37,1.25 146.49,1.25 		"/>
		<path d="M252.91,3.41c-4.32-1.44-9.1-2.16-14.35-2.16h-25.15v71.52h17.19V49.06h8.35c5.05,0,9.73-0.86,14.02-2.59
			c4.29-1.73,7.73-4.4,10.32-8.02c2.59-3.62,3.89-8.24,3.89-13.87c0-5.89-1.29-10.53-3.89-13.92S257.23,4.85,252.91,3.41z
			 M247.39,32.69c-2.05,1.89-5.15,2.83-9.31,2.83h-7.49V14.88h7.01c4.16,0,7.34,0.72,9.55,2.16c2.21,1.44,3.31,3.95,3.31,7.54
			C250.46,28.1,249.44,30.8,247.39,32.69z"/>
		<path d="M320.06,40.99c0,4.48-0.46,8.06-1.39,10.75c-0.93,2.69-2.29,4.62-4.08,5.81c-1.79,1.18-4,1.78-6.62,1.78
			c-2.62,0-4.82-0.59-6.58-1.78c-1.76-1.18-3.09-3.12-3.98-5.81c-0.9-2.69-1.34-6.27-1.34-10.75V1.25h-17.09v37.92
			c0,6.02,0.61,11.23,1.82,15.65c1.21,4.42,3.04,8.05,5.47,10.9c2.43,2.85,5.46,4.96,9.07,6.34c3.62,1.38,7.82,2.06,12.62,2.06
			c4.73,0,8.89-0.69,12.48-2.06c3.58-1.38,6.58-3.49,8.98-6.34c2.4-2.85,4.19-6.48,5.38-10.9c1.18-4.42,1.78-9.63,1.78-15.65V1.25
			h-16.51V40.99z"/>
		<polygon points="383.61,58.37 383.61,15.55 403,15.55 403,1.25 347.13,1.25 347.13,15.55 366.43,15.55 366.43,72.77 379.57,72.77 
			383.61,72.77 692,72.77 692,58.37 		"/>
	</g>
</g>
<g id="레이어_2">
</g>
</svg>
