<?xml version="1.0" encoding="utf-8"?>
<!-- Generator: Adobe Illustrator 27.4.0, SVG Export Plug-In . SVG Version: 6.00 Build 0)  -->
<svg version="1.1" xmlns="http://www.w3.org/2000/svg" xmlns:xlink="http://www.w3.org/1999/xlink" x="0px" y="0px"
	 viewBox="0 0 692 71.52" style="enable-background:new 0 0 692 71.52;" xml:space="preserve">
<g id="레이어_1">
	<g>
		<path d="M65.95,32.64c-0.45,3.71-0.9,7.46-1.34,11.23c-0.45,3.78-0.9,7.58-1.34,11.42h-0.48c-0.71-3.84-1.39-7.66-2.06-11.47
			c-0.67-3.81-1.36-7.54-2.06-11.18L51.26,0h-14.5l-7.3,32.64c-0.71,3.71-1.41,7.46-2.11,11.23c-0.7,3.78-1.41,7.58-2.11,11.42
			h-0.38c-0.45-3.84-0.91-7.65-1.39-11.42c-0.48-3.78-0.98-7.52-1.49-11.23L17.47,0H0l12.96,71.52h21.22l6.24-31.1
			c0.51-2.75,1.01-5.54,1.49-8.35c0.48-2.82,0.94-5.57,1.39-8.26h0.38c0.32,2.69,0.72,5.44,1.2,8.26c0.48,2.82,1.01,5.6,1.58,8.35
			l6.43,31.1h21.6L86.88,0H70.66L65.95,32.64z"/>
		<polygon points="113.76,41.95 137.66,41.95 137.66,27.55 113.76,27.55 113.76,14.3 141.89,14.3 141.89,0 96.58,0 96.58,71.52 
			142.94,71.52 142.94,57.12 113.76,57.12 		"/>
		<path d="M192.19,0l-22.18,71.52h17.47l4.1-16.42h21.17l4.1,16.42h18.05L212.73,0H192.19z M194.9,41.86l1.51-6.05
			c0.9-3.58,1.82-7.38,2.78-11.38c0.96-4,1.86-7.86,2.69-11.57h0.38c0.96,3.65,1.9,7.49,2.83,11.52c0.93,4.03,1.87,7.84,2.83,11.42
			l1.51,6.05H194.9z"/>
		<path d="M292.75,36.19c2.53-3.52,3.79-8.06,3.79-13.63c0-5.76-1.26-10.29-3.79-13.58c-2.53-3.3-5.9-5.62-10.13-6.96
			C278.4,0.67,273.72,0,268.6,0H242.4v71.52h17.18V46.37h8.26l13.15,25.15h19.2l-15.97-28.28C287.7,41.6,290.55,39.26,292.75,36.19z
			 M259.58,13.63h7.68c4.09,0,7.21,0.64,9.36,1.92c2.14,1.28,3.22,3.62,3.22,7.01c0,3.33-1.07,5.87-3.22,7.63
			c-2.15,1.76-5.27,2.64-9.36,2.64h-7.68V13.63z"/>
		<polygon points="356.73,57.12 354.85,57.12 327.55,57.12 327.55,41.95 351.45,41.95 351.45,27.55 327.55,27.55 327.55,14.3 
			355.68,14.3 355.68,0 310.36,0 310.36,71.52 354.85,71.52 356.73,71.52 692,71.52 692,57.12 		"/>
	</g>
	<g>
		<path d="M-932.79-494.13l-8.06,32.64c-1.02,3.84-1.94,7.62-2.74,11.33c-0.8,3.71-1.74,7.55-2.83,11.52h-0.48
			c-1.02-3.97-1.94-7.81-2.74-11.52c-0.8-3.71-1.74-7.49-2.83-11.33l-8.16-32.64h-18.14l21.41,71.52h20.64l21.41-71.52H-932.79z"/>
		<path d="M-897.56-494.13l-22.18,71.52h17.47l4.1-16.42h21.17l4.1,16.42h18.05l-22.18-71.52H-897.56z M-894.85-452.27l1.51-6.05
			c0.89-3.58,1.82-7.38,2.78-11.38c0.96-4,1.86-7.86,2.69-11.57h0.38c0.96,3.65,1.9,7.49,2.83,11.52c0.93,4.03,1.87,7.84,2.83,11.42
			l1.51,6.05H-894.85z"/>
		<polygon points="-830.17,-494.13 -847.36,-494.13 -847.36,-422.61 -802.33,-422.61 -802.33,-437.01 -830.17,-437.01 		"/>
		<path d="M-754.04-454.38c0,4.48-0.46,8.06-1.39,10.75c-0.93,2.69-2.29,4.62-4.08,5.81c-1.79,1.19-4,1.78-6.62,1.78
			c-2.62,0-4.82-0.59-6.58-1.78c-1.76-1.18-3.09-3.12-3.98-5.81c-0.9-2.69-1.34-6.27-1.34-10.75v-39.74h-17.09v37.92
			c0,6.02,0.61,11.23,1.82,15.65c1.21,4.42,3.04,8.05,5.47,10.9c2.43,2.85,5.46,4.96,9.07,6.34c3.62,1.38,7.82,2.06,12.62,2.06
			c4.74,0,8.89-0.69,12.48-2.06c3.58-1.38,6.58-3.49,8.98-6.34c2.4-2.85,4.19-6.48,5.38-10.9c1.18-4.42,1.78-9.63,1.78-15.65v-37.92
			h-16.51V-454.38z"/>
		<polygon points="-675.13,-437.01 -677.5,-437.01 -704.31,-437.01 -704.31,-452.18 -680.41,-452.18 -680.41,-466.58 
			-704.31,-466.58 -704.31,-479.82 -676.19,-479.82 -676.19,-494.13 -721.5,-494.13 -721.5,-422.61 -677.5,-422.61 -675.13,-422.61 
			-286.78,-422.61 -286.78,-437.01 		"/>
	</g>
	<g>
		<path d="M-883.51-179.26c-4.32-1.44-9.1-2.16-14.35-2.16h-25.15v71.52h17.18v-23.71h8.35c5.06,0,9.73-0.86,14.02-2.59
			c4.29-1.73,7.73-4.4,10.32-8.02c2.59-3.62,3.89-8.24,3.89-13.87c0-5.89-1.3-10.53-3.89-13.92
			C-875.73-175.4-879.19-177.82-883.51-179.26z M-889.03-149.98c-2.05,1.89-5.15,2.83-9.31,2.83h-7.49v-20.64h7.01
			c4.16,0,7.34,0.72,9.55,2.16s3.31,3.95,3.31,7.54C-885.96-154.57-886.98-151.86-889.03-149.98z"/>
		<path d="M-777.67-181.42l-21.97,70.86l-15.6-27.62c3.49-1.63,6.33-3.98,8.53-7.05c2.53-3.52,3.79-8.06,3.79-13.63
			c0-5.76-1.26-10.29-3.79-13.58c-2.53-3.3-5.9-5.62-10.13-6.96c-4.22-1.34-8.9-2.02-14.02-2.02h-26.21v71.52h17.19v-25.15h8.26
			l13.15,25.15h18.62h0.58h16.9l4.1-16.42h21.17l4.1,16.42h18.05l-22.18-71.52H-777.67z M-839.88-167.79h7.68
			c4.09,0,7.21,0.64,9.36,1.92c2.14,1.28,3.22,3.62,3.22,7.01c0,3.33-1.07,5.87-3.22,7.63c-2.14,1.76-5.27,2.64-9.36,2.64h-7.68
			V-167.79z M-774.96-139.56l1.51-6.05c0.9-3.58,1.82-7.38,2.78-11.38c0.96-4,1.86-7.86,2.69-11.57h0.38
			c0.96,3.65,1.9,7.49,2.83,11.52c0.93,4.03,1.87,7.84,2.83,11.42l1.51,6.05H-774.96z"/>
		<path d="M-690.65-125.26c-2.27,1.28-4.85,1.92-7.73,1.92c-3.33,0-6.24-0.88-8.74-2.64c-2.5-1.76-4.43-4.32-5.81-7.68
			c-1.38-3.36-2.06-7.41-2.06-12.14c0-4.67,0.75-8.66,2.26-11.95c1.5-3.3,3.54-5.82,6.1-7.58c2.56-1.76,5.38-2.64,8.45-2.64
			c2.56,0,4.83,0.51,6.81,1.54c1.98,1.02,3.87,2.37,5.66,4.03l8.93-10.94c-2.43-2.5-5.49-4.67-9.17-6.53
			c-3.68-1.86-7.86-2.78-12.53-2.78c-4.54,0-8.86,0.83-12.96,2.5c-4.1,1.67-7.73,4.1-10.9,7.3c-3.17,3.2-5.66,7.12-7.49,11.76
			c-1.82,4.64-2.74,9.94-2.74,15.89c0,6.02,0.88,11.31,2.64,15.89c1.76,4.58,4.19,8.42,7.3,11.52c3.1,3.11,6.67,5.42,10.7,6.96
			s8.32,2.3,12.86,2.3c4.67,0,8.98-0.88,12.91-2.64c3.94-1.76,7.41-4.4,10.42-7.92l-9.02-10.75
			C-686.41-128.07-688.37-126.54-690.65-125.26z"/>
		<polygon points="-672.64,-167.11 -653.35,-167.11 -653.35,-109.9 -636.17,-109.9 -636.17,-167.11 -616.77,-167.11 
			-616.77,-181.42 -672.64,-181.42 		"/>
		<rect x="-605.73" y="-181.42" width="17.19" height="71.52"/>
		<path d="M-533.49-125.26c-2.27,1.28-4.85,1.92-7.73,1.92c-3.33,0-6.24-0.88-8.74-2.64c-2.5-1.76-4.43-4.32-5.81-7.68
			c-1.38-3.36-2.06-7.41-2.06-12.14c0-4.67,0.75-8.66,2.26-11.95c1.5-3.3,3.54-5.82,6.1-7.58c2.56-1.76,5.38-2.64,8.45-2.64
			c2.56,0,4.83,0.51,6.81,1.54c1.98,1.02,3.87,2.37,5.66,4.03l8.93-10.94c-2.43-2.5-5.49-4.67-9.17-6.53
			c-3.68-1.86-7.86-2.78-12.53-2.78c-4.54,0-8.87,0.83-12.96,2.5c-4.1,1.67-7.73,4.1-10.9,7.3c-3.17,3.2-5.66,7.12-7.49,11.76
			c-1.82,4.64-2.74,9.94-2.74,15.89c0,6.02,0.88,11.31,2.64,15.89c1.76,4.58,4.19,8.42,7.29,11.52c3.1,3.11,6.67,5.42,10.71,6.96
			c4.03,1.54,8.32,2.3,12.86,2.3c4.67,0,8.98-0.88,12.91-2.64c3.94-1.76,7.41-4.4,10.42-7.92l-9.02-10.75
			C-529.26-128.07-531.22-126.54-533.49-125.26z"/>
		<polygon points="-461.73,-124.3 -468.46,-124.3 -490.92,-124.3 -490.92,-139.47 -467.02,-139.47 -467.02,-153.87 -490.92,-153.87 
			-490.92,-167.11 -462.79,-167.11 -462.79,-181.42 -508.1,-181.42 -508.1,-109.9 -468.46,-109.9 -461.73,-109.9 -231.01,-109.9 
			-231.01,-124.3 		"/>
	</g>
	<g>
		<path d="M-873.14-57c-4.9-2.88-10.61-4.32-17.14-4.32c-6.46,0-12.16,1.42-17.09,4.27c-4.93,2.85-8.77,7.01-11.52,12.48
			c-2.75,5.47-4.13,12.11-4.13,19.92c0,7.81,1.38,14.51,4.13,20.11c2.75,5.6,6.59,9.89,11.52,12.86c4.93,2.98,10.62,4.46,17.09,4.46
			c6.53,0,12.24-1.49,17.14-4.46s8.72-7.26,11.47-12.86c2.75-5.6,4.13-12.3,4.13-20.11c0-7.81-1.38-14.43-4.13-19.87
			C-864.42-49.96-868.25-54.12-873.14-57z M-876.89-12.65c-1.25,3.39-3.01,6.02-5.28,7.87c-2.27,1.86-4.98,2.79-8.11,2.79
			c-3.14,0-5.84-0.93-8.11-2.79c-2.27-1.86-4.02-4.48-5.23-7.87c-1.22-3.39-1.82-7.39-1.82-12c0-4.61,0.61-8.56,1.82-11.86
			c1.22-3.3,2.96-5.81,5.23-7.54c2.27-1.73,4.98-2.59,8.11-2.59c3.13,0,5.84,0.86,8.11,2.59c2.27,1.73,4.03,4.24,5.28,7.54
			c1.25,3.3,1.87,7.25,1.87,11.86C-875.01-20.04-875.64-16.04-876.89-12.65z"/>
		<path d="M-803.59-20.33c0,4.48-0.46,8.06-1.39,10.75c-0.93,2.69-2.29,4.62-4.08,5.81c-1.79,1.18-4,1.78-6.62,1.78
			c-2.62,0-4.82-0.59-6.58-1.78c-1.76-1.18-3.09-3.12-3.98-5.81c-0.9-2.69-1.34-6.27-1.34-10.75v-39.74h-17.09v37.92
			c0,6.02,0.61,11.23,1.82,15.65c1.21,4.42,3.04,8.05,5.47,10.9c2.43,2.85,5.46,4.96,9.07,6.34c3.62,1.38,7.82,2.06,12.62,2.06
			c4.73,0,8.89-0.69,12.48-2.06c3.58-1.38,6.58-3.49,8.98-6.34c2.4-2.85,4.19-6.48,5.38-10.9c1.18-4.42,1.78-9.63,1.78-15.65v-37.92
			h-16.51V-20.33z"/>
		<polygon points="-776.52,-45.77 -757.22,-45.77 -757.22,11.45 -740.04,11.45 -740.04,-45.77 -720.65,-45.77 -720.65,-60.07 
			-776.52,-60.07 		"/>
		<path d="M-670.1-57.91c-4.32-1.44-9.1-2.16-14.35-2.16h-25.15v71.52h17.19v-23.71h8.35c5.05,0,9.73-0.86,14.02-2.59
			c4.29-1.73,7.73-4.4,10.32-8.02c2.59-3.62,3.89-8.24,3.89-13.87c0-5.89-1.29-10.53-3.89-13.92S-665.78-56.47-670.1-57.91z
			 M-675.62-28.63c-2.05,1.89-5.15,2.83-9.31,2.83h-7.49v-20.64h7.01c4.16,0,7.34,0.72,9.55,2.16c2.21,1.44,3.31,3.95,3.31,7.54
			C-672.55-33.23-673.58-30.52-675.62-28.63z"/>
		<path d="M-602.95-20.33c0,4.48-0.46,8.06-1.39,10.75c-0.93,2.69-2.29,4.62-4.08,5.81c-1.79,1.18-4,1.78-6.62,1.78
			c-2.62,0-4.82-0.59-6.58-1.78c-1.76-1.18-3.09-3.12-3.98-5.81c-0.9-2.69-1.34-6.27-1.34-10.75v-39.74h-17.09v37.92
			c0,6.02,0.61,11.23,1.82,15.65c1.21,4.42,3.04,8.05,5.47,10.9c2.43,2.85,5.46,4.96,9.07,6.34c3.62,1.38,7.82,2.06,12.62,2.06
			c4.73,0,8.89-0.69,12.48-2.06c3.58-1.38,6.58-3.49,8.98-6.34c2.4-2.85,4.19-6.48,5.38-10.9c1.18-4.42,1.78-9.63,1.78-15.65v-37.92
			h-16.51V-20.33z"/>
		<polygon points="-539.4,-2.95 -539.4,-45.77 -520.01,-45.77 -520.01,-60.07 -575.88,-60.07 -575.88,-45.77 -556.59,-45.77 
			-556.59,11.45 -543.44,11.45 -539.4,11.45 -231.01,11.45 -231.01,-2.95 		"/>
	</g>
</g>
<g id="레이어_2">
</g>
</svg>
