<?xml version="1.0" encoding="utf-8"?>
<!-- Generator: Adobe Illustrator 27.4.0, SVG Export Plug-In . SVG Version: 6.00 Build 0)  -->
<svg version="1.1" xmlns="http://www.w3.org/2000/svg" xmlns:xlink="http://www.w3.org/1999/xlink" x="0px" y="0px"
	 viewBox="0 0 692 74.76" style="enable-background:new 0 0 692 74.76;" xml:space="preserve">
<style type="text/css">
	.st0{fill:#fff;}
</style>
<g id="레이어_1">
	<g>
		<path class="st0" d="M-876.66,187.79c-0.45,3.71-0.9,7.46-1.34,11.23c-0.45,3.78-0.9,7.58-1.34,11.42h-0.48
			c-0.71-3.84-1.39-7.66-2.06-11.47c-0.67-3.81-1.36-7.54-2.06-11.18l-7.39-32.64h-14.5l-7.3,32.64c-0.71,3.71-1.41,7.46-2.11,11.23
			c-0.7,3.78-1.41,7.58-2.11,11.42h-0.38c-0.45-3.84-0.91-7.65-1.39-11.42c-0.48-3.78-0.98-7.52-1.49-11.23l-4.51-32.64h-17.47
			l12.96,71.52h21.22l6.24-31.1c0.51-2.75,1.01-5.54,1.49-8.35c0.48-2.82,0.94-5.57,1.39-8.26h0.38c0.32,2.69,0.72,5.44,1.2,8.26
			c0.48,2.82,1.01,5.6,1.58,8.35l6.43,31.1h21.6l12.38-71.52h-16.22L-876.66,187.79z"/>
		<polygon class="st0" points="-828.85,197.1 -804.95,197.1 -804.95,182.7 -828.85,182.7 -828.85,169.45 -800.72,169.45 
			-800.72,155.15 -846.03,155.15 -846.03,226.67 -799.67,226.67 -799.67,212.27 -828.85,212.27 		"/>
		<path class="st0" d="M-750.42,155.15l-22.18,71.52h17.47l4.1-16.42h21.17l4.1,16.42h18.05l-22.18-71.52H-750.42z M-747.71,197
			l1.51-6.05c0.9-3.58,1.82-7.38,2.78-11.38c0.96-4,1.86-7.86,2.69-11.57h0.38c0.96,3.65,1.9,7.49,2.83,11.52
			c0.93,4.03,1.87,7.84,2.83,11.42l1.51,6.05H-747.71z"/>
		<path class="st0" d="M-649.86,191.34c2.53-3.52,3.79-8.06,3.79-13.63c0-5.76-1.26-10.29-3.79-13.58c-2.53-3.3-5.9-5.62-10.13-6.96
			c-4.22-1.34-8.9-2.02-14.02-2.02h-26.21v71.52h17.18v-25.15h8.26l13.15,25.15h19.2l-15.97-28.28
			C-654.91,196.75-652.06,194.4-649.86,191.34z M-683.03,168.78h7.68c4.09,0,7.21,0.64,9.36,1.92c2.14,1.28,3.22,3.62,3.22,7.01
			c0,3.33-1.07,5.87-3.22,7.63c-2.15,1.76-5.27,2.64-9.36,2.64h-7.68V168.78z"/>
		<polygon class="st0" points="-585.88,212.27 -587.76,212.27 -615.06,212.27 -615.06,197.1 -591.16,197.1 -591.16,182.7 
			-615.06,182.7 -615.06,169.45 -586.93,169.45 -586.93,155.15 -632.25,155.15 -632.25,226.67 -587.76,226.67 -585.88,226.67 
			-250.61,226.67 -250.61,212.27 		"/>
	</g>
	<g>
		<path class="st0" d="M-858.93-395.61l-8.06,32.64c-1.02,3.84-1.94,7.62-2.74,11.33c-0.8,3.71-1.74,7.55-2.83,11.52h-0.48
			c-1.02-3.97-1.94-7.81-2.74-11.52c-0.8-3.71-1.74-7.49-2.83-11.33l-8.16-32.64h-18.14l21.41,71.52h20.64l21.41-71.52H-858.93z"/>
		<path class="st0" d="M-823.7-395.61l-22.18,71.52h17.47l4.1-16.42h21.17l4.1,16.42h18.05l-22.18-71.52H-823.7z M-820.99-353.76
			l1.51-6.05c0.89-3.58,1.82-7.38,2.78-11.38c0.96-4,1.86-7.86,2.69-11.57h0.38c0.96,3.65,1.9,7.49,2.83,11.52
			c0.93,4.03,1.87,7.84,2.83,11.42l1.51,6.05H-820.99z"/>
		<polygon class="st0" points="-756.31,-395.61 -773.49,-395.61 -773.49,-324.09 -728.47,-324.09 -728.47,-338.49 -756.31,-338.49 
					"/>
		<path class="st0" d="M-680.18-355.87c0,4.48-0.46,8.06-1.39,10.75c-0.93,2.69-2.29,4.62-4.08,5.81c-1.79,1.19-4,1.78-6.62,1.78
			c-2.62,0-4.82-0.59-6.58-1.78c-1.76-1.18-3.09-3.12-3.98-5.81c-0.9-2.69-1.34-6.27-1.34-10.75v-39.74h-17.09v37.92
			c0,6.02,0.61,11.23,1.82,15.65c1.21,4.42,3.04,8.05,5.47,10.9c2.43,2.85,5.46,4.96,9.07,6.34c3.62,1.38,7.82,2.06,12.62,2.06
			c4.74,0,8.89-0.69,12.48-2.06c3.58-1.38,6.58-3.49,8.98-6.34c2.4-2.85,4.19-6.48,5.38-10.9c1.18-4.42,1.78-9.63,1.78-15.65v-37.92
			h-16.51V-355.87z"/>
		<polygon class="st0" points="-601.27,-338.49 -603.63,-338.49 -630.45,-338.49 -630.45,-353.66 -606.55,-353.66 -606.55,-368.06 
			-630.45,-368.06 -630.45,-381.31 -602.32,-381.31 -602.32,-395.61 -647.64,-395.61 -647.64,-324.09 -603.63,-324.09 
			-601.27,-324.09 -212.91,-324.09 -212.91,-338.49 		"/>
	</g>
	<g>
		<path class="st0" d="M39.5,3.41c-4.32-1.44-9.1-2.16-14.35-2.16H0v71.52h17.18V49.06h8.35c5.06,0,9.73-0.86,14.02-2.59
			c4.29-1.73,7.73-4.4,10.32-8.02c2.59-3.62,3.89-8.24,3.89-13.87c0-5.89-1.3-10.53-3.89-13.92C47.28,7.26,43.82,4.85,39.5,3.41z
			 M33.98,32.69c-2.05,1.89-5.15,2.83-9.31,2.83h-7.49V14.88h7.01c4.16,0,7.34,0.72,9.55,2.16s3.31,3.95,3.31,7.54
			C37.06,28.1,36.03,30.8,33.98,32.69z"/>
		<path class="st0" d="M145.34,1.25l-21.97,70.86l-15.6-27.62c3.49-1.63,6.33-3.98,8.53-7.05c2.53-3.52,3.79-8.06,3.79-13.63
			c0-5.76-1.26-10.29-3.79-13.58c-2.53-3.3-5.9-5.62-10.13-6.96c-4.22-1.34-8.9-2.02-14.02-2.02H65.95v71.52h17.19V47.62h8.26
			l13.15,25.15h18.62h0.58h16.9l4.1-16.42h21.17l4.1,16.42h18.05L165.89,1.25H145.34z M83.14,14.88h7.68c4.09,0,7.21,0.64,9.36,1.92
			c2.14,1.28,3.22,3.62,3.22,7.01c0,3.33-1.07,5.87-3.22,7.63c-2.14,1.76-5.27,2.64-9.36,2.64h-7.68V14.88z M148.06,43.1l1.51-6.05
			c0.9-3.58,1.82-7.38,2.78-11.38c0.96-4,1.86-7.86,2.69-11.57h0.38c0.96,3.65,1.9,7.49,2.83,11.52c0.93,4.03,1.87,7.84,2.83,11.42
			l1.51,6.05H148.06z"/>
		<path class="st0" d="M232.37,57.41c-2.27,1.28-4.85,1.92-7.73,1.92c-3.33,0-6.24-0.88-8.74-2.64c-2.5-1.76-4.43-4.32-5.81-7.68
			c-1.38-3.36-2.06-7.41-2.06-12.14c0-4.67,0.75-8.66,2.26-11.95c1.5-3.3,3.54-5.82,6.1-7.58c2.56-1.76,5.38-2.64,8.45-2.64
			c2.56,0,4.83,0.51,6.81,1.54c1.98,1.02,3.87,2.37,5.66,4.03l8.93-10.94c-2.43-2.5-5.49-4.67-9.17-6.53
			C233.39,0.93,229.21,0,224.54,0c-4.54,0-8.86,0.83-12.96,2.5c-4.1,1.67-7.73,4.1-10.9,7.3c-3.17,3.2-5.66,7.12-7.49,11.76
			c-1.82,4.64-2.74,9.94-2.74,15.89c0,6.02,0.88,11.31,2.64,15.89c1.76,4.58,4.19,8.42,7.3,11.52c3.1,3.11,6.67,5.42,10.7,6.96
			s8.32,2.3,12.86,2.3c4.67,0,8.98-0.88,12.91-2.64c3.94-1.76,7.41-4.4,10.42-7.92l-9.02-10.75
			C236.6,54.59,234.64,56.13,232.37,57.41z"/>
		<polygon class="st0" points="250.37,15.55 269.66,15.55 269.66,72.77 286.85,72.77 286.85,15.55 306.24,15.55 306.24,1.25 
			250.37,1.25 		"/>
		<rect x="317.28" y="1.25" class="st0" width="17.19" height="71.52"/>
		<path class="st0" d="M389.52,57.41c-2.27,1.28-4.85,1.92-7.73,1.92c-3.33,0-6.24-0.88-8.74-2.64c-2.5-1.76-4.43-4.32-5.81-7.68
			c-1.38-3.36-2.06-7.41-2.06-12.14c0-4.67,0.75-8.66,2.26-11.95c1.5-3.3,3.54-5.82,6.1-7.58c2.56-1.76,5.38-2.64,8.45-2.64
			c2.56,0,4.83,0.51,6.81,1.54c1.98,1.02,3.87,2.37,5.66,4.03l8.93-10.94c-2.43-2.5-5.49-4.67-9.17-6.53
			C390.54,0.93,386.37,0,381.69,0c-4.54,0-8.87,0.83-12.96,2.5c-4.1,1.67-7.73,4.1-10.9,7.3c-3.17,3.2-5.66,7.12-7.49,11.76
			c-1.82,4.64-2.74,9.94-2.74,15.89c0,6.02,0.88,11.31,2.64,15.89c1.76,4.58,4.19,8.42,7.29,11.52c3.1,3.11,6.67,5.42,10.71,6.96
			c4.03,1.54,8.32,2.3,12.86,2.3c4.67,0,8.98-0.88,12.91-2.64c3.94-1.76,7.41-4.4,10.42-7.92l-9.02-10.75
			C393.76,54.59,391.79,56.13,389.52,57.41z"/>
		<polygon class="st0" points="461.28,58.37 454.55,58.37 432.1,58.37 432.1,43.2 456,43.2 456,28.8 432.1,28.8 432.1,15.55 
			460.22,15.55 460.22,1.25 414.91,1.25 414.91,72.77 454.55,72.77 461.28,72.77 692,72.77 692,58.37 		"/>
	</g>
	<g>
		<path class="st0" d="M-872.61-56.67c-4.9-2.88-10.61-4.32-17.14-4.32c-6.46,0-12.16,1.42-17.09,4.27
			c-4.93,2.85-8.77,7.01-11.52,12.48c-2.75,5.47-4.13,12.11-4.13,19.92c0,7.81,1.38,14.51,4.13,20.11
			c2.75,5.6,6.59,9.89,11.52,12.86c4.93,2.98,10.62,4.46,17.09,4.46c6.53,0,12.24-1.49,17.14-4.46s8.72-7.26,11.47-12.86
			c2.75-5.6,4.13-12.3,4.13-20.11c0-7.81-1.38-14.43-4.13-19.87C-863.89-49.62-867.71-53.79-872.61-56.67z M-876.35-12.31
			c-1.25,3.39-3.01,6.02-5.28,7.87c-2.27,1.86-4.98,2.79-8.11,2.79c-3.14,0-5.84-0.93-8.11-2.79c-2.27-1.86-4.02-4.48-5.23-7.87
			c-1.22-3.39-1.82-7.39-1.82-12c0-4.61,0.61-8.56,1.82-11.86c1.22-3.3,2.96-5.81,5.23-7.54c2.27-1.73,4.98-2.59,8.11-2.59
			c3.13,0,5.84,0.86,8.11,2.59c2.27,1.73,4.03,4.24,5.28,7.54c1.25,3.3,1.87,7.25,1.87,11.86
			C-874.48-19.71-875.11-15.7-876.35-12.31z"/>
		<path class="st0" d="M-803.06-19.99c0,4.48-0.46,8.06-1.39,10.75c-0.93,2.69-2.29,4.62-4.08,5.81c-1.79,1.18-4,1.78-6.62,1.78
			c-2.62,0-4.82-0.59-6.58-1.78c-1.76-1.18-3.09-3.12-3.98-5.81c-0.9-2.69-1.34-6.27-1.34-10.75v-39.74h-17.09v37.92
			c0,6.02,0.61,11.23,1.82,15.65c1.21,4.42,3.04,8.05,5.47,10.9c2.43,2.85,5.46,4.96,9.07,6.34c3.62,1.38,7.82,2.06,12.62,2.06
			c4.73,0,8.89-0.69,12.48-2.06c3.58-1.38,6.58-3.49,8.98-6.34c2.4-2.85,4.19-6.48,5.38-10.9c1.18-4.42,1.78-9.63,1.78-15.65v-37.92
			h-16.51V-19.99z"/>
		<polygon class="st0" points="-775.99,-45.43 -756.69,-45.43 -756.69,11.78 -739.51,11.78 -739.51,-45.43 -720.12,-45.43 
			-720.12,-59.74 -775.99,-59.74 		"/>
		<path class="st0" d="M-669.57-57.58c-4.32-1.44-9.1-2.16-14.35-2.16h-25.15v71.52h17.19v-23.71h8.35c5.05,0,9.73-0.86,14.02-2.59
			c4.29-1.73,7.73-4.4,10.32-8.02c2.59-3.62,3.89-8.24,3.89-13.87c0-5.89-1.29-10.53-3.89-13.92S-665.25-56.14-669.57-57.58z
			 M-675.09-28.3c-2.05,1.89-5.15,2.83-9.31,2.83h-7.49v-20.64h7.01c4.16,0,7.34,0.72,9.55,2.16c2.21,1.44,3.31,3.95,3.31,7.54
			C-672.02-32.89-673.04-30.18-675.09-28.3z"/>
		<path class="st0" d="M-602.42-19.99c0,4.48-0.46,8.06-1.39,10.75c-0.93,2.69-2.29,4.62-4.08,5.81c-1.79,1.18-4,1.78-6.62,1.78
			c-2.62,0-4.82-0.59-6.58-1.78c-1.76-1.18-3.09-3.12-3.98-5.81c-0.9-2.69-1.34-6.27-1.34-10.75v-39.74h-17.09v37.92
			c0,6.02,0.61,11.23,1.82,15.65c1.21,4.42,3.04,8.05,5.47,10.9c2.43,2.85,5.46,4.96,9.07,6.34c3.62,1.38,7.82,2.06,12.62,2.06
			c4.73,0,8.89-0.69,12.48-2.06c3.58-1.38,6.58-3.49,8.98-6.34c2.4-2.85,4.19-6.48,5.38-10.9c1.18-4.42,1.78-9.63,1.78-15.65v-37.92
			h-16.51V-19.99z"/>
		<polygon class="st0" points="-538.87,-2.62 -538.87,-45.43 -519.48,-45.43 -519.48,-59.74 -575.35,-59.74 -575.35,-45.43 
			-556.05,-45.43 -556.05,11.78 -542.91,11.78 -538.87,11.78 -230.48,11.78 -230.48,-2.62 		"/>
	</g>
</g>
<g id="레이어_2">
</g>
</svg>
