<?xml version="1.0" encoding="utf-8"?>
<!-- Generator: Adobe Illustrator 27.4.0, SVG Export Plug-In . SVG Version: 6.00 Build 0)  -->
<svg version="1.1" id="레이어_1" xmlns="http://www.w3.org/2000/svg" xmlns:xlink="http://www.w3.org/1999/xlink" x="0px"
	 y="0px" viewBox="0 0 692 71.52" style="enable-background:new 0 0 692 71.52;" xml:space="preserve">
<style type="text/css">
	.st0{fill:#fff;}
</style>
<g>
	<path class="st0" d="M65.95,32.64c-0.45,3.71-0.9,7.46-1.34,11.23c-0.45,3.78-0.9,7.58-1.34,11.42h-0.48
		c-0.71-3.84-1.39-7.66-2.06-11.47c-0.67-3.81-1.36-7.54-2.06-11.18L51.26,0h-14.5l-7.3,32.64c-0.71,3.71-1.41,7.46-2.11,11.23
		c-0.7,3.78-1.41,7.58-2.11,11.42h-0.38c-0.45-3.84-0.91-7.65-1.39-11.42c-0.48-3.78-0.98-7.52-1.49-11.23L17.47,0H0l12.96,71.52
		h21.22l6.24-31.1c0.51-2.75,1.01-5.54,1.49-8.35c0.48-2.82,0.94-5.57,1.39-8.26h0.38c0.32,2.69,0.72,5.44,1.2,8.26
		c0.48,2.82,1.01,5.6,1.58,8.35l6.43,31.1h21.6L86.88,0H70.66L65.95,32.64z"/>
	<polygon class="st0" points="113.76,41.95 137.66,41.95 137.66,27.55 113.76,27.55 113.76,14.3 141.89,14.3 141.89,0 96.58,0 
		96.58,71.52 142.94,71.52 142.94,57.12 113.76,57.12 	"/>
	<path class="st0" d="M192.19,0l-22.18,71.52h17.47l4.1-16.42h21.17l4.1,16.42h18.05L212.73,0H192.19z M194.9,41.86l1.51-6.05
		c0.9-3.58,1.82-7.38,2.78-11.38c0.96-4,1.86-7.86,2.69-11.57h0.38c0.96,3.65,1.9,7.49,2.83,11.52c0.93,4.03,1.87,7.84,2.83,11.42
		l1.51,6.05H194.9z"/>
	<path class="st0" d="M292.75,36.19c2.53-3.52,3.79-8.06,3.79-13.63c0-5.76-1.26-10.29-3.79-13.58c-2.53-3.3-5.9-5.62-10.13-6.96
		C278.4,0.67,273.72,0,268.6,0H242.4v71.52h17.18V46.37h8.26l13.15,25.15h19.2l-15.97-28.28C287.7,41.6,290.55,39.26,292.75,36.19z
		 M259.58,13.63h7.68c4.09,0,7.21,0.64,9.36,1.92c2.14,1.28,3.22,3.62,3.22,7.01c0,3.33-1.07,5.87-3.22,7.63
		c-2.15,1.76-5.27,2.64-9.36,2.64h-7.68V13.63z"/>
	<polygon class="st0" points="356.73,57.12 354.85,57.12 327.55,57.12 327.55,41.95 351.45,41.95 351.45,27.55 327.55,27.55 
		327.55,14.3 355.68,14.3 355.68,0 310.36,0 310.36,71.52 354.85,71.52 356.73,71.52 692,71.52 692,57.12 	"/>
</g>
<g>
	<path class="st0" d="M-858.93-397.23l-8.06,32.64c-1.02,3.84-1.94,7.62-2.74,11.33c-0.8,3.71-1.74,7.55-2.83,11.52h-0.48
		c-1.02-3.97-1.94-7.81-2.74-11.52c-0.8-3.71-1.74-7.49-2.83-11.33l-8.16-32.64h-18.14l21.41,71.52h20.64l21.41-71.52H-858.93z"/>
	<path class="st0" d="M-823.7-397.23l-22.18,71.52h17.47l4.1-16.42h21.17l4.1,16.42h18.05l-22.18-71.52H-823.7z M-820.99-355.38
		l1.51-6.05c0.89-3.58,1.82-7.38,2.78-11.38c0.96-4,1.86-7.86,2.69-11.57h0.38c0.96,3.65,1.9,7.49,2.83,11.52
		c0.93,4.03,1.87,7.84,2.83,11.42l1.51,6.05H-820.99z"/>
	<polygon class="st0" points="-756.31,-397.23 -773.49,-397.23 -773.49,-325.71 -728.47,-325.71 -728.47,-340.11 -756.31,-340.11 	
		"/>
	<path class="st0" d="M-680.18-357.49c0,4.48-0.46,8.06-1.39,10.75c-0.93,2.69-2.29,4.62-4.08,5.81c-1.79,1.19-4,1.78-6.62,1.78
		c-2.62,0-4.82-0.59-6.58-1.78c-1.76-1.18-3.09-3.12-3.98-5.81c-0.9-2.69-1.34-6.27-1.34-10.75v-39.74h-17.09v37.92
		c0,6.02,0.61,11.23,1.82,15.65c1.21,4.42,3.04,8.05,5.47,10.9c2.43,2.85,5.46,4.96,9.07,6.34c3.62,1.38,7.82,2.06,12.62,2.06
		c4.74,0,8.89-0.69,12.48-2.06c3.58-1.38,6.58-3.49,8.98-6.34c2.4-2.85,4.19-6.48,5.38-10.9c1.18-4.42,1.78-9.63,1.78-15.65v-37.92
		h-16.51V-357.49z"/>
	<polygon class="st0" points="-601.27,-340.11 -603.63,-340.11 -630.45,-340.11 -630.45,-355.28 -606.55,-355.28 -606.55,-369.68 
		-630.45,-369.68 -630.45,-382.93 -602.32,-382.93 -602.32,-397.23 -647.64,-397.23 -647.64,-325.71 -603.63,-325.71 
		-601.27,-325.71 -212.91,-325.71 -212.91,-340.11 	"/>
</g>
<g>
	<path class="st0" d="M-721.91-241.71c-4.32-1.44-9.1-2.16-14.35-2.16h-25.15v71.52h17.18v-23.71h8.35c5.06,0,9.73-0.86,14.02-2.59
		c4.29-1.73,7.73-4.4,10.32-8.02c2.59-3.62,3.89-8.24,3.89-13.87c0-5.89-1.3-10.53-3.89-13.92
		C-714.14-237.86-717.59-240.27-721.91-241.71z M-727.43-212.43c-2.05,1.89-5.15,2.83-9.31,2.83h-7.49v-20.64h7.01
		c4.16,0,7.34,0.72,9.55,2.16s3.31,3.95,3.31,7.54C-724.36-217.02-725.39-214.32-727.43-212.43z"/>
	<path class="st0" d="M-616.07-243.87l-21.97,70.86l-15.6-27.62c3.49-1.63,6.33-3.98,8.53-7.05c2.53-3.52,3.79-8.06,3.79-13.63
		c0-5.76-1.26-10.29-3.79-13.58c-2.53-3.3-5.9-5.62-10.13-6.96c-4.22-1.34-8.9-2.02-14.02-2.02h-26.21v71.52h17.19v-25.15h8.26
		l13.15,25.15h18.62h0.58h16.9l4.1-16.42h21.17l4.1,16.42h18.05l-22.18-71.52H-616.07z M-678.28-230.24h7.68
		c4.09,0,7.21,0.64,9.36,1.92c2.14,1.28,3.22,3.62,3.22,7.01c0,3.33-1.07,5.87-3.22,7.63c-2.14,1.76-5.27,2.64-9.36,2.64h-7.68
		V-230.24z M-613.36-202.02l1.51-6.05c0.9-3.58,1.82-7.38,2.78-11.38c0.96-4,1.86-7.86,2.69-11.57h0.38
		c0.96,3.65,1.9,7.49,2.83,11.52c0.93,4.03,1.87,7.84,2.83,11.42l1.51,6.05H-613.36z"/>
	<path class="st0" d="M-529.05-187.71c-2.27,1.28-4.85,1.92-7.73,1.92c-3.33,0-6.24-0.88-8.74-2.64c-2.5-1.76-4.43-4.32-5.81-7.68
		c-1.38-3.36-2.06-7.41-2.06-12.14c0-4.67,0.75-8.66,2.26-11.95c1.5-3.3,3.54-5.82,6.1-7.58c2.56-1.76,5.38-2.64,8.45-2.64
		c2.56,0,4.83,0.51,6.81,1.54c1.98,1.02,3.87,2.37,5.66,4.03l8.93-10.94c-2.43-2.5-5.49-4.67-9.17-6.53
		c-3.68-1.86-7.86-2.78-12.53-2.78c-4.54,0-8.86,0.83-12.96,2.5c-4.1,1.67-7.73,4.1-10.9,7.3c-3.17,3.2-5.66,7.12-7.49,11.76
		c-1.82,4.64-2.74,9.94-2.74,15.89c0,6.02,0.88,11.31,2.64,15.89c1.76,4.58,4.19,8.42,7.3,11.52c3.1,3.11,6.67,5.42,10.7,6.96
		s8.32,2.3,12.86,2.3c4.67,0,8.98-0.88,12.91-2.64c3.94-1.76,7.41-4.4,10.42-7.92l-9.02-10.75
		C-524.81-190.53-526.78-188.99-529.05-187.71z"/>
	<polygon class="st0" points="-511.05,-229.57 -491.75,-229.57 -491.75,-172.35 -474.57,-172.35 -474.57,-229.57 -455.18,-229.57 
		-455.18,-243.87 -511.05,-243.87 	"/>
	<rect x="-444.14" y="-243.87" class="st0" width="17.19" height="71.52"/>
	<path class="st0" d="M-371.9-187.71c-2.27,1.28-4.85,1.92-7.73,1.92c-3.33,0-6.24-0.88-8.74-2.64c-2.5-1.76-4.43-4.32-5.81-7.68
		c-1.38-3.36-2.06-7.41-2.06-12.14c0-4.67,0.75-8.66,2.26-11.95c1.5-3.3,3.54-5.82,6.1-7.58c2.56-1.76,5.38-2.64,8.45-2.64
		c2.56,0,4.83,0.51,6.81,1.54c1.98,1.02,3.87,2.37,5.66,4.03l8.93-10.94c-2.43-2.5-5.49-4.67-9.17-6.53
		c-3.68-1.86-7.86-2.78-12.53-2.78c-4.54,0-8.87,0.83-12.96,2.5c-4.1,1.67-7.73,4.1-10.9,7.3c-3.17,3.2-5.66,7.12-7.49,11.76
		c-1.82,4.64-2.74,9.94-2.74,15.89c0,6.02,0.88,11.31,2.64,15.89c1.76,4.58,4.19,8.42,7.29,11.52c3.1,3.11,6.67,5.42,10.71,6.96
		c4.03,1.54,8.32,2.3,12.86,2.3c4.67,0,8.98-0.88,12.91-2.64c3.94-1.76,7.41-4.4,10.42-7.92l-9.02-10.75
		C-367.66-190.53-369.63-188.99-371.9-187.71z"/>
	<polygon class="st0" points="-300.14,-186.75 -306.87,-186.75 -329.32,-186.75 -329.32,-201.92 -305.42,-201.92 -305.42,-216.32 
		-329.32,-216.32 -329.32,-229.57 -301.2,-229.57 -301.2,-243.87 -346.51,-243.87 -346.51,-172.35 -306.87,-172.35 -300.14,-172.35 
		-69.42,-172.35 -69.42,-186.75 	"/>
</g>
<g>
	<path class="st0" d="M-628.59-87.44c-4.9-2.88-10.61-4.32-17.14-4.32c-6.46,0-12.16,1.42-17.09,4.27
		c-4.93,2.85-8.77,7.01-11.52,12.48c-2.75,5.47-4.13,12.11-4.13,19.92c0,7.81,1.38,14.51,4.13,20.11c2.75,5.6,6.59,9.89,11.52,12.86
		c4.93,2.98,10.62,4.46,17.09,4.46c6.53,0,12.24-1.49,17.14-4.46s8.72-7.26,11.47-12.86c2.75-5.6,4.13-12.3,4.13-20.11
		c0-7.81-1.38-14.43-4.13-19.87C-619.87-80.4-623.69-84.56-628.59-87.44z M-632.33-43.09c-1.25,3.39-3.01,6.02-5.28,7.87
		c-2.27,1.86-4.98,2.79-8.11,2.79c-3.14,0-5.84-0.93-8.11-2.79c-2.27-1.86-4.02-4.48-5.23-7.87c-1.22-3.39-1.82-7.39-1.82-12
		c0-4.61,0.61-8.56,1.82-11.86c1.22-3.3,2.96-5.81,5.23-7.54c2.27-1.73,4.98-2.59,8.11-2.59c3.13,0,5.84,0.86,8.11,2.59
		c2.27,1.73,4.03,4.24,5.28,7.54c1.25,3.3,1.87,7.25,1.87,11.86C-630.46-50.48-631.09-46.48-632.33-43.09z"/>
	<path class="st0" d="M-559.04-50.77c0,4.48-0.46,8.06-1.39,10.75c-0.93,2.69-2.29,4.62-4.08,5.81c-1.79,1.18-4,1.78-6.62,1.78
		c-2.62,0-4.82-0.59-6.58-1.78c-1.76-1.18-3.09-3.12-3.98-5.81c-0.9-2.69-1.34-6.27-1.34-10.75v-39.74h-17.09v37.92
		c0,6.02,0.61,11.23,1.82,15.65c1.21,4.42,3.04,8.05,5.47,10.9c2.43,2.85,5.46,4.96,9.07,6.34c3.62,1.38,7.82,2.06,12.62,2.06
		c4.73,0,8.89-0.69,12.48-2.06c3.58-1.38,6.58-3.49,8.98-6.34c2.4-2.85,4.19-6.48,5.38-10.9c1.18-4.42,1.78-9.63,1.78-15.65v-37.92
		h-16.51V-50.77z"/>
	<polygon class="st0" points="-531.97,-76.21 -512.67,-76.21 -512.67,-18.99 -495.49,-18.99 -495.49,-76.21 -476.1,-76.21 
		-476.1,-90.51 -531.97,-90.51 	"/>
	<path class="st0" d="M-425.55-88.35c-4.32-1.44-9.1-2.16-14.35-2.16h-25.15v71.52h17.19v-23.71h8.35c5.05,0,9.73-0.86,14.02-2.59
		c4.29-1.73,7.73-4.4,10.32-8.02c2.59-3.62,3.89-8.24,3.89-13.87c0-5.89-1.29-10.53-3.89-13.92S-421.23-86.91-425.55-88.35z
		 M-431.07-59.07c-2.05,1.89-5.15,2.83-9.31,2.83h-7.49v-20.64h7.01c4.16,0,7.34,0.72,9.55,2.16c2.21,1.44,3.31,3.95,3.31,7.54
		C-428-63.67-429.02-60.96-431.07-59.07z"/>
	<path class="st0" d="M-358.4-50.77c0,4.48-0.46,8.06-1.39,10.75c-0.93,2.69-2.29,4.62-4.08,5.81c-1.79,1.18-4,1.78-6.62,1.78
		c-2.62,0-4.82-0.59-6.58-1.78c-1.76-1.18-3.09-3.12-3.98-5.81c-0.9-2.69-1.34-6.27-1.34-10.75v-39.74h-17.09v37.92
		c0,6.02,0.61,11.23,1.82,15.65c1.21,4.42,3.04,8.05,5.47,10.9c2.43,2.85,5.46,4.96,9.07,6.34c3.62,1.38,7.82,2.06,12.62,2.06
		c4.73,0,8.89-0.69,12.48-2.06c3.58-1.38,6.58-3.49,8.98-6.34c2.4-2.85,4.19-6.48,5.38-10.9c1.18-4.42,1.78-9.63,1.78-15.65v-37.92
		h-16.51V-50.77z"/>
	<polygon class="st0" points="-294.85,-33.39 -294.85,-76.21 -275.46,-76.21 -275.46,-90.51 -331.33,-90.51 -331.33,-76.21 
		-312.03,-76.21 -312.03,-18.99 -298.89,-18.99 -294.85,-18.99 13.54,-18.99 13.54,-33.39 	"/>
</g>
</svg>
