<?xml version="1.0" encoding="utf-8"?>
<!-- Generator: Adobe Illustrator 27.4.0, SVG Export Plug-In . SVG Version: 6.00 Build 0)  -->
<svg version="1.1" xmlns="http://www.w3.org/2000/svg" xmlns:xlink="http://www.w3.org/1999/xlink" x="0px" y="0px"
	 viewBox="0 0 692 72.86" style="enable-background:new 0 0 692 72.86;" xml:space="preserve">
<style type="text/css">
	.st0{display:none;}
	.st1{display:inline;}
	.st2{fill:#fff;}
</style>
<g id="레이어_1" class="st0">
	<g class="st1">
		<path d="M-876.66,187.16c-0.45,3.71-0.9,7.46-1.34,11.23c-0.45,3.78-0.9,7.58-1.34,11.42h-0.48c-0.71-3.84-1.39-7.66-2.06-11.47
			c-0.67-3.81-1.36-7.54-2.06-11.18l-7.39-32.64h-14.5l-7.3,32.64c-0.71,3.71-1.41,7.46-2.11,11.23c-0.7,3.78-1.41,7.58-2.11,11.42
			h-0.38c-0.45-3.84-0.91-7.65-1.39-11.42c-0.48-3.78-0.98-7.52-1.49-11.23l-4.51-32.64h-17.47l12.96,71.52h21.22l6.24-31.1
			c0.51-2.75,1.01-5.54,1.49-8.35c0.48-2.82,0.94-5.57,1.39-8.26h0.38c0.32,2.69,0.72,5.44,1.2,8.26c0.48,2.82,1.01,5.6,1.58,8.35
			l6.43,31.1h21.6l12.38-71.52h-16.22L-876.66,187.16z"/>
		<polygon points="-828.85,196.48 -804.95,196.48 -804.95,182.08 -828.85,182.08 -828.85,168.83 -800.72,168.83 -800.72,154.52 
			-846.03,154.52 -846.03,226.04 -799.67,226.04 -799.67,211.64 -828.85,211.64 		"/>
		<path d="M-750.42,154.52l-22.18,71.52h17.47l4.1-16.42h21.17l4.1,16.42h18.05l-22.18-71.52H-750.42z M-747.71,196.38l1.51-6.05
			c0.9-3.58,1.82-7.38,2.78-11.38c0.96-4,1.86-7.86,2.69-11.57h0.38c0.96,3.65,1.9,7.49,2.83,11.52c0.93,4.03,1.87,7.84,2.83,11.42
			l1.51,6.05H-747.71z"/>
		<path d="M-649.86,190.72c2.53-3.52,3.79-8.06,3.79-13.63c0-5.76-1.26-10.29-3.79-13.58c-2.53-3.3-5.9-5.62-10.13-6.96
			c-4.22-1.34-8.9-2.02-14.02-2.02h-26.21v71.52h17.18v-25.15h8.26l13.15,25.15h19.2l-15.97-28.28
			C-654.91,196.13-652.06,193.78-649.86,190.72z M-683.03,168.15h7.68c4.09,0,7.21,0.64,9.36,1.92c2.14,1.28,3.22,3.62,3.22,7.01
			c0,3.33-1.07,5.87-3.22,7.63c-2.15,1.76-5.27,2.64-9.36,2.64h-7.68V168.15z"/>
		<polygon points="-585.88,211.64 -587.76,211.64 -615.06,211.64 -615.06,196.48 -591.16,196.48 -591.16,182.08 -615.06,182.08 
			-615.06,168.83 -586.93,168.83 -586.93,154.52 -632.25,154.52 -632.25,226.04 -587.76,226.04 -585.88,226.04 -250.61,226.04 
			-250.61,211.64 		"/>
	</g>
	<g class="st1">
		<path d="M22.86-96.79l-8.06,32.64c-1.02,3.84-1.94,7.62-2.74,11.33c-0.8,3.71-1.74,7.55-2.83,11.52H8.74
			c-1.02-3.97-1.94-7.81-2.74-11.52c-0.8-3.71-1.74-7.49-2.83-11.33l-8.16-32.64h-18.14l21.41,71.52h20.64l21.41-71.52H22.86z"/>
		<path d="M58.09-96.79L35.91-25.27h17.47l4.1-16.42h21.17l4.1,16.42h18.05L78.63-96.79H58.09z M60.8-54.94l1.51-6.05
			c0.89-3.58,1.82-7.38,2.78-11.38c0.96-4,1.86-7.86,2.69-11.57h0.38c0.96,3.65,1.9,7.49,2.83,11.52c0.93,4.03,1.87,7.84,2.83,11.42
			l1.51,6.05H60.8z"/>
		<polygon points="125.48,-96.79 108.29,-96.79 108.29,-25.27 153.32,-25.27 153.32,-39.67 125.48,-39.67 		"/>
		<path d="M201.61-57.05c0,4.48-0.46,8.06-1.39,10.75c-0.93,2.69-2.29,4.62-4.08,5.81c-1.79,1.19-4,1.78-6.62,1.78
			c-2.62,0-4.82-0.59-6.58-1.78c-1.76-1.18-3.09-3.12-3.98-5.81c-0.9-2.69-1.34-6.27-1.34-10.75v-39.74h-17.09v37.92
			c0,6.02,0.61,11.23,1.82,15.65c1.21,4.42,3.04,8.05,5.47,10.9c2.43,2.85,5.46,4.96,9.07,6.34c3.62,1.38,7.82,2.06,12.62,2.06
			c4.74,0,8.89-0.69,12.48-2.06c3.58-1.38,6.58-3.49,8.98-6.34c2.4-2.85,4.19-6.48,5.38-10.9c1.18-4.42,1.78-9.63,1.78-15.65v-37.92
			h-16.51V-57.05z"/>
		<polygon points="280.52,-39.67 278.15,-39.67 251.34,-39.67 251.34,-54.84 275.24,-54.84 275.24,-69.24 251.34,-69.24 
			251.34,-82.49 279.46,-82.49 279.46,-96.79 234.15,-96.79 234.15,-25.27 278.15,-25.27 280.52,-25.27 668.87,-25.27 
			668.87,-39.67 		"/>
	</g>
	<g class="st1">
		<path d="M-882.98-179.55c-4.32-1.44-9.1-2.16-14.35-2.16h-25.15v71.52h17.18v-23.71h8.35c5.06,0,9.73-0.86,14.02-2.59
			c4.29-1.73,7.73-4.4,10.32-8.02c2.59-3.62,3.89-8.24,3.89-13.87c0-5.89-1.3-10.53-3.89-13.92
			C-875.2-175.69-878.66-178.11-882.98-179.55z M-888.5-150.27c-2.05,1.89-5.15,2.83-9.31,2.83h-7.49v-20.64h7.01
			c4.16,0,7.34,0.72,9.55,2.16s3.31,3.95,3.31,7.54C-885.43-154.86-886.45-152.15-888.5-150.27z"/>
		<path d="M-777.14-181.71l-21.97,70.86l-15.6-27.62c3.49-1.63,6.33-3.98,8.53-7.05c2.53-3.52,3.79-8.06,3.79-13.63
			c0-5.76-1.26-10.29-3.79-13.58c-2.53-3.3-5.9-5.62-10.13-6.96c-4.22-1.34-8.9-2.02-14.02-2.02h-26.21v71.52h17.19v-25.15h8.26
			l13.15,25.15h18.62h0.58h16.9l4.1-16.42h21.17l4.1,16.42h18.05l-22.18-71.52H-777.14z M-839.34-168.07h7.68
			c4.09,0,7.21,0.64,9.36,1.92c2.14,1.28,3.22,3.62,3.22,7.01c0,3.33-1.07,5.87-3.22,7.63c-2.14,1.76-5.27,2.64-9.36,2.64h-7.68
			V-168.07z M-774.43-139.85l1.51-6.05c0.9-3.58,1.82-7.38,2.78-11.38c0.96-4,1.86-7.86,2.69-11.57h0.38
			c0.96,3.65,1.9,7.49,2.83,11.52c0.93,4.03,1.87,7.84,2.83,11.42l1.51,6.05H-774.43z"/>
		<path d="M-690.11-125.55c-2.27,1.28-4.85,1.92-7.73,1.92c-3.33,0-6.24-0.88-8.74-2.64c-2.5-1.76-4.43-4.32-5.81-7.68
			c-1.38-3.36-2.06-7.41-2.06-12.14c0-4.67,0.75-8.66,2.26-11.95c1.5-3.3,3.54-5.82,6.1-7.58c2.56-1.76,5.38-2.64,8.45-2.64
			c2.56,0,4.83,0.51,6.81,1.54c1.98,1.02,3.87,2.37,5.66,4.03l8.93-10.94c-2.43-2.5-5.49-4.67-9.17-6.53
			c-3.68-1.86-7.86-2.78-12.53-2.78c-4.54,0-8.86,0.83-12.96,2.5c-4.1,1.67-7.73,4.1-10.9,7.3c-3.17,3.2-5.66,7.12-7.49,11.76
			c-1.82,4.64-2.74,9.94-2.74,15.89c0,6.02,0.88,11.31,2.64,15.89c1.76,4.58,4.19,8.42,7.3,11.52c3.1,3.11,6.67,5.42,10.7,6.96
			s8.32,2.3,12.86,2.3c4.67,0,8.98-0.88,12.91-2.64c3.94-1.76,7.41-4.4,10.42-7.92l-9.02-10.75
			C-685.88-128.36-687.84-126.82-690.11-125.55z"/>
		<polygon points="-672.11,-167.4 -652.82,-167.4 -652.82,-110.19 -635.63,-110.19 -635.63,-167.4 -616.24,-167.4 -616.24,-181.71 
			-672.11,-181.71 		"/>
		<rect x="-605.2" y="-181.71" width="17.19" height="71.52"/>
		<path d="M-532.96-125.55c-2.27,1.28-4.85,1.92-7.73,1.92c-3.33,0-6.24-0.88-8.74-2.64c-2.5-1.76-4.43-4.32-5.81-7.68
			c-1.38-3.36-2.06-7.41-2.06-12.14c0-4.67,0.75-8.66,2.26-11.95c1.5-3.3,3.54-5.82,6.1-7.58c2.56-1.76,5.38-2.64,8.45-2.64
			c2.56,0,4.83,0.51,6.81,1.54c1.98,1.02,3.87,2.37,5.66,4.03l8.93-10.94c-2.43-2.5-5.49-4.67-9.17-6.53
			c-3.68-1.86-7.86-2.78-12.53-2.78c-4.54,0-8.87,0.83-12.96,2.5c-4.1,1.67-7.73,4.1-10.9,7.3c-3.17,3.2-5.66,7.12-7.49,11.76
			c-1.82,4.64-2.74,9.94-2.74,15.89c0,6.02,0.88,11.31,2.64,15.89c1.76,4.58,4.19,8.42,7.29,11.52c3.1,3.11,6.67,5.42,10.71,6.96
			c4.03,1.54,8.32,2.3,12.86,2.3c4.67,0,8.98-0.88,12.91-2.64c3.94-1.76,7.41-4.4,10.42-7.92l-9.02-10.75
			C-528.72-128.36-530.69-126.82-532.96-125.55z"/>
		<polygon points="-461.2,-124.59 -467.93,-124.59 -490.39,-124.59 -490.39,-139.75 -466.48,-139.75 -466.48,-154.15 
			-490.39,-154.15 -490.39,-167.4 -462.26,-167.4 -462.26,-181.71 -507.57,-181.71 -507.57,-110.19 -467.93,-110.19 -461.2,-110.19 
			-230.48,-110.19 -230.48,-124.59 		"/>
	</g>
	<g class="st1">
		<path d="M-872.61-57.29c-4.9-2.88-10.61-4.32-17.14-4.32c-6.46,0-12.16,1.42-17.09,4.27c-4.93,2.85-8.77,7.01-11.52,12.48
			c-2.75,5.47-4.13,12.11-4.13,19.92c0,7.81,1.38,14.51,4.13,20.11c2.75,5.6,6.59,9.89,11.52,12.86c4.93,2.98,10.62,4.46,17.09,4.46
			c6.53,0,12.24-1.49,17.14-4.46s8.72-7.26,11.47-12.86c2.75-5.6,4.13-12.3,4.13-20.11c0-7.81-1.38-14.43-4.13-19.87
			C-863.89-50.25-867.71-54.41-872.61-57.29z M-876.35-12.94c-1.25,3.39-3.01,6.02-5.28,7.87c-2.27,1.86-4.98,2.79-8.11,2.79
			c-3.14,0-5.84-0.93-8.11-2.79c-2.27-1.86-4.02-4.48-5.23-7.87c-1.22-3.39-1.82-7.39-1.82-12c0-4.61,0.61-8.56,1.82-11.86
			c1.22-3.3,2.96-5.81,5.23-7.54c2.27-1.73,4.98-2.59,8.11-2.59c3.13,0,5.84,0.86,8.11,2.59c2.27,1.73,4.03,4.24,5.28,7.54
			c1.25,3.3,1.87,7.25,1.87,11.86C-874.48-20.33-875.11-16.33-876.35-12.94z"/>
		<path d="M-803.06-20.62c0,4.48-0.46,8.06-1.39,10.75c-0.93,2.69-2.29,4.62-4.08,5.81c-1.79,1.18-4,1.78-6.62,1.78
			c-2.62,0-4.82-0.59-6.58-1.78c-1.76-1.18-3.09-3.12-3.98-5.81c-0.9-2.69-1.34-6.27-1.34-10.75v-39.74h-17.09v37.92
			c0,6.02,0.61,11.23,1.82,15.65c1.21,4.42,3.04,8.05,5.47,10.9c2.43,2.85,5.46,4.96,9.07,6.34c3.62,1.38,7.82,2.06,12.62,2.06
			c4.73,0,8.89-0.69,12.48-2.06c3.58-1.38,6.58-3.49,8.98-6.34c2.4-2.85,4.19-6.48,5.38-10.9c1.18-4.42,1.78-9.63,1.78-15.65v-37.92
			h-16.51V-20.62z"/>
		<polygon points="-775.99,-46.06 -756.69,-46.06 -756.69,11.16 -739.51,11.16 -739.51,-46.06 -720.12,-46.06 -720.12,-60.36 
			-775.99,-60.36 		"/>
		<path d="M-669.57-58.2c-4.32-1.44-9.1-2.16-14.35-2.16h-25.15v71.52h17.19v-23.71h8.35c5.05,0,9.73-0.86,14.02-2.59
			c4.29-1.73,7.73-4.4,10.32-8.02c2.59-3.62,3.89-8.24,3.89-13.87c0-5.89-1.29-10.53-3.89-13.92S-665.25-56.76-669.57-58.2z
			 M-675.09-28.92c-2.05,1.89-5.15,2.83-9.31,2.83h-7.49v-20.64h7.01c4.16,0,7.34,0.72,9.55,2.16c2.21,1.44,3.31,3.95,3.31,7.54
			C-672.02-33.51-673.04-30.81-675.09-28.92z"/>
		<path d="M-602.42-20.62c0,4.48-0.46,8.06-1.39,10.75c-0.93,2.69-2.29,4.62-4.08,5.81c-1.79,1.18-4,1.78-6.62,1.78
			c-2.62,0-4.82-0.59-6.58-1.78c-1.76-1.18-3.09-3.12-3.98-5.81c-0.9-2.69-1.34-6.27-1.34-10.75v-39.74h-17.09v37.92
			c0,6.02,0.61,11.23,1.82,15.65c1.21,4.42,3.04,8.05,5.47,10.9c2.43,2.85,5.46,4.96,9.07,6.34c3.62,1.38,7.82,2.06,12.62,2.06
			c4.73,0,8.89-0.69,12.48-2.06c3.58-1.38,6.58-3.49,8.98-6.34c2.4-2.85,4.19-6.48,5.38-10.9c1.18-4.42,1.78-9.63,1.78-15.65v-37.92
			h-16.51V-20.62z"/>
		<polygon points="-538.87,-3.24 -538.87,-46.06 -519.48,-46.06 -519.48,-60.36 -575.35,-60.36 -575.35,-46.06 -556.05,-46.06 
			-556.05,11.16 -542.91,11.16 -538.87,11.16 -230.48,11.16 -230.48,-3.24 		"/>
	</g>
</g>
<g id="레이어_2">
	<g>
		<path class="st2" d="M45.98,0l-8.06,32.64c-1.02,3.84-1.94,7.62-2.74,11.33c-0.8,3.71-1.74,7.55-2.83,11.52h-0.48
			c-1.02-3.97-1.94-7.81-2.74-11.52c-0.8-3.71-1.74-7.49-2.83-11.33L18.14,0H0l21.41,71.52h20.64L63.46,0H45.98z"/>
		<path class="st2" d="M81.22,0L59.04,71.52h17.47l4.1-16.42h21.17l4.1,16.42h18.05L101.76,0H81.22z M83.93,41.86l1.51-6.05
			c0.89-3.58,1.82-7.38,2.78-11.38c0.96-4,1.86-7.86,2.69-11.57h0.38c0.96,3.65,1.9,7.49,2.83,11.52c0.93,4.03,1.87,7.84,2.83,11.42
			l1.51,6.05H83.93z"/>
		<polygon class="st2" points="148.61,0 131.42,0 131.42,71.52 176.45,71.52 176.45,57.12 148.61,57.12 		"/>
		<path class="st2" d="M224.73,39.74c0,4.48-0.46,8.06-1.39,10.75c-0.93,2.69-2.29,4.62-4.08,5.81c-1.79,1.19-4,1.78-6.62,1.78
			c-2.62,0-4.82-0.59-6.58-1.78c-1.76-1.18-3.09-3.12-3.98-5.81c-0.9-2.69-1.34-6.27-1.34-10.75V0h-17.09v37.92
			c0,6.02,0.61,11.23,1.82,15.65c1.21,4.42,3.04,8.05,5.47,10.9c2.43,2.85,5.46,4.96,9.07,6.34c3.62,1.38,7.82,2.06,12.62,2.06
			c4.74,0,8.89-0.69,12.48-2.06c3.58-1.38,6.58-3.49,8.98-6.34c2.4-2.85,4.19-6.48,5.38-10.9c1.18-4.42,1.78-9.63,1.78-15.65V0
			h-16.51V39.74z"/>
		<polygon class="st2" points="303.65,57.12 301.28,57.12 274.46,57.12 274.46,41.95 298.37,41.95 298.37,27.55 274.46,27.55 
			274.46,14.3 302.59,14.3 302.59,0 257.28,0 257.28,71.52 301.28,71.52 303.65,71.52 692,71.52 692,57.12 		"/>
	</g>
</g>
</svg>
